<svg width="22" height="30" viewBox="0 0 22 30" fill="none" xmlns="http://www.w3.org/2000/svg">
<g clip-path="url(#clip0_30_5029)">
<path d="M3.40086 11.45C3.70086 11.35 4.00086 11.25 4.30086 11.05C4.80086 10.75 5.30086 10.45 5.80086 10.15C9.00086 8.05002 12.1009 5.85002 15.3009 3.85002C16.1009 3.35002 16.0009 2.95002 15.5009 2.35002C14.1009 0.850018 12.7009 0.550018 11.1009 1.65002C8.00086 3.85002 4.90086 6.25002 1.80086 8.75002C0.500863 9.75002 0.600863 10.35 2.20086 11.05C2.50086 11.15 3.00086 11.25 3.40086 11.45Z" fill="#48E5C2"/>
<path d="M14.5012 26.55C12.2012 24.75 9.90117 22.95 7.50117 21.15C7.20117 20.95 6.90117 20.75 6.50117 20.55C5.50117 20.05 4.10117 20.25 3.20117 20.95C2.70117 21.45 2.70117 21.85 3.20117 22.25C4.60117 23.45 6.00117 24.75 7.40117 25.95C8.50117 26.85 9.60117 27.75 10.7012 28.55C11.1012 28.85 11.5012 28.95 11.9012 29.15C13.0012 28.95 13.7012 28.45 14.4012 27.75C15.1012 27.25 15.0012 26.95 14.5012 26.55Z" fill="#48E5C2"/>
<path d="M5.00078 13.05C4.80078 13.05 4.50078 13.25 4.30078 13.35C4.40078 13.65 4.50078 14.05 4.70078 14.15C5.60078 14.65 6.50078 15.25 7.50078 15.35C10.7008 15.75 13.9008 15.95 17.1008 16.25C18.4008 16.35 19.7008 16.55 20.9008 16.65C21.0008 16.55 21.0008 16.35 21.1008 16.25C20.2008 14.65 18.8008 13.75 17.0008 13.35C13.1008 12.65 9.00078 12.45 5.00078 13.05Z" fill="#48E5C2"/>
</g>
<defs>
<clipPath id="clip0_30_5029">
<rect width="20.2" height="28.3" fill="white" transform="translate(0.900391 0.849976)"/>
</clipPath>
</defs>
</svg>
