<svg width="456" height="279" viewBox="0 0 456 279" fill="none" xmlns="http://www.w3.org/2000/svg">
<path d="M35.9191 69.8698C36.6657 72.0545 37.0358 74.6241 39.7139 75.7366C44.4107 77.7064 48.965 79.8485 53.7129 81.6864C55.2955 82.299 57.1015 82.9223 58.8606 81.7077C59.1053 76.5706 57.5354 74.7497 52.7153 73.4904C48.4226 72.4353 44.2938 70.7612 40.0628 69.3508C39.1801 69.0849 38.3994 68.5552 37.557 68.3808C36.3998 68.2362 35.6064 68.9147 35.9191 69.8698Z" fill="#DBCBEA"/>
<path d="M210.822 252.179C208.852 253.383 206.424 254.304 205.921 257.16C205.021 262.173 203.921 267.084 203.16 272.118C202.907 273.796 202.691 275.694 204.26 277.147C209.327 276.268 210.763 274.34 210.943 269.361C211.039 264.941 211.774 260.547 212.23 256.111C212.298 255.191 212.645 254.314 212.632 253.454C212.521 252.293 211.686 251.666 210.822 252.179Z" fill="#DBCBEA"/>
<path d="M390.763 89.6435C391.08 90.0432 392.022 90.3481 392.467 90.1206C394.205 89.3451 395.896 88.4805 397.588 87.616C397.945 87.434 398.255 87.1629 398.522 87.0264C402.031 84.2229 405.405 81.3758 407.517 77.377C408.132 76.1641 408.837 74.9057 408.198 73.4354C407.193 71.0292 405.834 69.0285 403.052 67.9795C398.686 75.0392 392.559 80.1912 385.53 84.4567C386.315 87.3121 389.183 87.8684 390.763 89.6435ZM393.124 88.5495C393.213 88.504 393.302 88.4585 393.302 88.4585C393.302 88.4585 393.213 88.504 393.124 88.5495Z" fill="#DBCBEA"/>
<path d="M72.2368 186.068C66.1225 186.908 59.9831 187.887 53.4833 188.873C55.9684 195.427 57.0889 195.988 63.057 194.763C67.9186 193.697 72.7872 192.993 77.6238 192.067C79.0337 191.817 80.5578 191.732 82.1069 191.508C79.5176 186.731 77.3016 185.471 72.2368 186.068Z" fill="#DBCBEA"/>
<path d="M378.057 233.769C374.328 231.703 370.497 229.85 366.749 227.929C365.844 227.489 364.754 227.328 363.032 226.896C365.758 234.335 372.286 235.961 377.493 239.177C379.074 240.114 380.719 241.129 383.633 239.814C383.499 239.14 383.257 238.163 383.162 237.198C382.034 235.634 379.72 234.639 378.057 233.769Z" fill="#DBCBEA"/>
<path d="M341.207 32.7958C342.572 32.4831 343.59 32.1988 344.633 32.1132C346.011 31.8996 346.673 31.1861 347.053 29.8225C347.475 28.398 348.05 26.9897 348.679 25.6198C350.428 21.5934 352.274 17.5446 353.968 13.4796C354.47 12.2922 354.82 11.0886 355.242 9.66413C352.156 9.86039 350.166 11.1845 348.949 13.8634C346.613 19.1989 344.277 24.5345 341.941 29.87C341.596 30.715 341.514 31.653 341.207 32.7958Z" fill="#DBCBEA"/>
<path d="M263.107 256.719C264.095 255.726 264.804 254.943 265.64 254.314C266.692 253.398 266.872 252.441 266.465 251.085C266.062 249.656 265.797 248.158 265.598 246.663C264.929 242.325 264.331 237.915 263.594 233.574C263.386 232.301 263.039 231.097 262.636 229.667C260.131 231.479 259.154 233.661 259.554 236.576C260.425 242.335 261.296 248.094 262.167 253.853C262.326 254.752 262.757 255.589 263.107 256.719Z" fill="#DBCBEA"/>
<path d="M152.692 23.6304C153.083 24.5565 154.253 25.9745 154.856 25.8932C157.421 25.7295 160.223 26.3302 161.854 24.1527C159.782 16.4199 159.511 8.75913 158.233 0.885958C157.476 0.805665 156.844 0.791446 156.211 0.777226C155.704 0.82908 155.167 0.785378 154.719 1.02834C150.941 3.03102 149.088 2.45162 149.909 8.16361C150.367 11.6849 150.73 15.2357 151.189 18.7571C151.624 20.5066 152.03 22.1605 152.692 23.6304Z" fill="#DBCBEA"/>
<g clip-path="url(#clip0_1260_33523)">
<path fill-rule="evenodd" clip-rule="evenodd" d="M110.257 49.685C109.144 45.2628 105.453 42.232 100.941 42.0474C96.4274 41.8531 92.5316 44.5658 91.1025 48.8852C89.6709 53.1948 91.1672 57.7473 94.8796 60.3707C105.869 68.1439 111.363 72.0305 118.039 80.6108C119.859 69.8927 122.859 63.8683 128.86 51.8195C130.889 47.7515 130.052 43.033 126.751 39.9143C123.448 36.7858 118.732 36.2402 114.848 38.5479C110.961 40.8459 109.144 45.2628 110.257 49.685Z" fill="#DBCBEA"/>
</g>
<g clip-path="url(#clip1_1260_33523)">
<path fill-rule="evenodd" clip-rule="evenodd" d="M178.875 222.776C179.407 219.418 177.763 216.26 174.724 214.813C171.687 213.358 168.222 214.077 165.978 216.62C163.735 219.155 163.428 222.714 165.205 225.6C170.463 234.146 173.092 238.419 175.157 246.255C179.542 239.44 183.362 236.188 191.004 229.685C193.585 227.49 194.393 224.01 193.043 220.906C191.694 217.794 188.621 216.04 185.283 216.485C181.945 216.922 179.407 219.418 178.875 222.776Z" fill="#DBCBEA"/>
</g>
<g clip-path="url(#clip2_1260_33523)">
<path fill-rule="evenodd" clip-rule="evenodd" d="M335.527 222.583C335.427 219.867 333.651 217.643 331.045 216.976C328.438 216.302 325.83 217.4 324.462 219.741C323.092 222.075 323.4 224.914 325.238 226.904C330.679 232.798 333.4 235.745 336.227 241.575C338.617 235.553 341.113 232.414 346.106 226.135C347.793 224.016 347.891 221.161 346.354 218.934C344.816 216.701 342.135 215.798 339.585 216.661C337.034 217.518 335.427 219.867 335.527 222.583Z" fill="#DBCBEA"/>
</g>
<g clip-path="url(#clip3_1260_33523)">
<path fill-rule="evenodd" clip-rule="evenodd" d="M406.175 119.95L405.395 141.48L455.395 145L453.845 116L406.175 119.95ZM409.705 123.31L423.605 122.12C421.765 124.21 420.615 127.19 420.615 130.5C420.615 133.62 421.635 136.45 423.295 138.51L409.305 137.21L409.705 123.31ZM428.655 121.69L430.825 121.51V122.59C431.685 122.65 432.555 122.91 433.435 123.38V126.74C432.485 125.74 431.595 125.23 430.735 125.23C430.325 125.23 429.955 125.37 429.605 125.65C429.265 125.92 429.095 126.31 429.095 126.79C429.095 127.15 429.205 127.46 429.455 127.72C429.685 127.99 430.215 128.33 431.055 128.74C431.805 129.11 432.395 129.46 432.825 129.79C433.245 130.12 433.595 130.58 433.885 131.17C434.165 131.76 434.305 132.4 434.305 133.11C434.305 134.21 433.985 135.2 433.335 136.1C432.685 136.99 431.705 137.62 430.395 137.97V139.17L428.225 138.97V137.97C427.335 137.95 426.325 137.66 425.175 137.1V133.62C426.275 134.76 427.345 135.33 428.375 135.33C428.945 135.33 429.435 135.15 429.815 134.78C430.195 134.41 430.395 133.93 430.395 133.36C430.395 132.88 430.235 132.48 429.925 132.18C429.615 131.87 429.065 131.54 428.285 131.17C427.275 130.7 426.505 130.12 425.975 129.44C425.445 128.78 425.175 127.92 425.175 126.88C425.175 125.84 425.465 124.97 426.045 124.25C426.635 123.54 427.505 122.99 428.655 122.59V121.69ZM435.305 121.13L449.025 119.95L450.615 141.05L435.565 139.65C437.835 137.56 439.305 134.24 439.305 130.5C439.305 126.76 437.725 123.19 435.305 121.13Z" fill="#DBCBEA"/>
</g>
<g clip-path="url(#clip4_1260_33523)">
<path fill-rule="evenodd" clip-rule="evenodd" d="M49.3647 125.16L49.3947 123.16C49.3947 123.16 49.5247 120.31 46.7647 120.05L3.3247 116.02C3.3247 116.02 0.0347008 115.5 0.424701 119.53C0.484701 120.13 0.604701 121.19 0.754701 122.56L49.3647 125.16ZM3.8547 149.14C3.8547 149.14 3.9847 152.13 7.6647 152C13.7247 151.78 46.1047 150.18 46.1047 150.18C46.1047 150.18 49.1347 150.44 49.1347 146.54C49.1347 144.4 49.2147 137.56 49.2847 131.83L1.6647 130.51C2.6547 139.03 3.8547 149.14 3.8547 149.14ZM6.4847 134.33L31.2247 134.95V137.71L7.0047 137.4L6.4847 134.33ZM7.5347 139.01L24.1247 139.58V142.13L7.8847 141.84L7.5347 139.01Z" fill="#DBCBEA"/>
</g>
<g clip-path="url(#clip5_1260_33523)">
<path fill-rule="evenodd" clip-rule="evenodd" d="M297.122 223.263L277.153 231.349L294.374 278.422L320.208 265.156L297.122 223.263ZM297.128 230.568L303.685 242.423C301.159 241.21 297.608 241.233 294.213 242.753C291.064 244.163 288.787 246.541 287.853 249.031L283.525 236.33C283.733 236.281 283.946 236.218 284.147 236.129C285.598 235.479 286.239 233.778 285.589 232.327C285.516 232.163 285.442 231.999 285.323 231.855L292.704 228.714C292.748 228.935 292.811 229.148 292.901 229.349C293.55 230.8 295.255 231.451 296.697 230.805C296.852 230.735 296.99 230.652 297.128 230.568ZM307.093 248.589L312.993 259.271C312.865 259.328 312.729 259.367 312.592 259.428C310.74 260.258 309.904 262.429 310.734 264.282L310.87 264.538L299.792 270.627C299.757 270.501 299.708 270.391 299.654 270.272C298.825 268.42 296.654 267.584 294.801 268.414L294.508 268.567L290.395 256.493C292.946 257.959 296.726 258.03 300.331 256.416C304.128 254.716 306.673 251.615 307.093 248.589Z" fill="#DBCBEA"/>
</g>
<g clip-path="url(#clip6_1260_33523)">
<path fill-rule="evenodd" clip-rule="evenodd" d="M186.805 77.7738L208.301 76.3273L206.641 26.231L177.956 30.7662L186.805 77.7738ZM189.081 70.8319L186.554 57.5216C188.575 59.4634 191.955 60.5503 195.655 60.1663C199.087 59.8102 201.992 58.262 203.657 56.189L203.803 69.6057C203.59 69.5875 203.368 69.5804 203.149 69.6031C201.568 69.7673 200.428 71.1825 200.592 72.764C200.611 72.943 200.629 73.1221 200.697 73.2959L192.705 73.9746C192.732 73.7506 192.739 73.5287 192.716 73.3099C192.552 71.7284 191.136 70.5784 189.564 70.7415C189.395 70.759 189.238 70.7955 189.081 70.8319ZM185.242 50.6L182.972 38.6103C183.112 38.5958 183.253 38.6013 183.402 38.5858C185.421 38.3763 186.893 36.5747 186.684 34.5555L186.634 34.2692L199.06 31.9441C199.054 32.0754 199.066 32.1948 199.08 32.3241C199.289 34.3432 201.091 35.8151 203.11 35.6056L203.436 35.5516L203.573 48.3056C201.607 46.1169 198.039 44.8685 194.11 45.2763C189.972 45.7057 186.586 47.8567 185.242 50.6Z" fill="#DBCBEA"/>
</g>
<g clip-path="url(#clip7_1260_33523)">
<path fill-rule="evenodd" clip-rule="evenodd" d="M266.658 32.3592C258.401 39.7474 257.676 52.4052 265.045 60.64C266.912 62.7266 269.118 64.3222 271.5 65.4247C270.541 67.5032 268.81 69.482 265.658 69.739C268.43 74.5316 272.649 75.7078 277.193 74.3526C275.353 71.6513 274.999 68.9759 275.349 66.7575C281.501 68.2039 288.248 66.7161 293.33 62.1685C301.58 54.7869 302.304 42.1292 294.936 33.8944C287.568 25.6596 274.907 24.9777 266.658 32.3592ZM283.867 35.6804C283.867 35.6804 276.534 32.5395 271.179 38.6866C268.281 39.4817 267.832 36.7161 268.119 36.0168C268.391 35.3166 275.746 27.6091 285.284 31.7012C287.978 34.7119 283.867 35.6804 283.867 35.6804ZM267.582 70.554C270.155 68.8415 274.398 69.849 275.127 73.9475C273.06 71.6373 267.582 70.554 267.582 70.554Z" fill="#DBCBEA"/>
</g>
<g clip-path="url(#clip8_1260_33523)">
<path fill-rule="evenodd" clip-rule="evenodd" d="M107.734 231.493C99.4767 238.881 98.7525 251.539 106.121 259.774C107.988 261.86 110.194 263.456 112.576 264.558C111.618 266.637 109.886 268.616 106.734 268.873C109.506 273.665 113.726 274.842 118.27 273.486C116.43 270.785 116.075 268.11 116.425 265.891C122.577 267.338 129.324 265.85 134.406 261.302C142.656 253.921 143.38 241.263 136.012 233.028C128.644 224.793 115.984 224.111 107.734 231.493ZM124.943 234.814C124.943 234.814 117.61 231.673 112.255 237.82C109.357 238.615 108.908 235.85 109.195 235.15C109.468 234.45 116.822 226.743 126.361 230.835C129.055 233.846 124.943 234.814 124.943 234.814ZM108.658 269.688C111.232 267.975 115.474 268.983 116.203 273.081C114.136 270.771 108.658 269.688 108.658 269.688Z" fill="#DBCBEA"/>
</g>
<defs>
<clipPath id="clip0_1260_33523">
<rect width="40" height="42" fill="white" transform="translate(88.3945 44.7615) rotate(-14.1251)"/>
</clipPath>
<clipPath id="clip1_1260_33523">
<rect width="29.8179" height="31.3088" fill="white" transform="translate(165.328 213) rotate(8.99845)"/>
</clipPath>
<clipPath id="clip2_1260_33523">
<rect width="23.8378" height="25.0297" fill="white" transform="translate(323.395 217.001) rotate(-2.10998)"/>
</clipPath>
<clipPath id="clip3_1260_33523">
<rect width="50" height="29" fill="white" transform="translate(405.395 116)"/>
</clipPath>
<clipPath id="clip4_1260_33523">
<rect width="49" height="36.01" fill="white" transform="translate(0.394531 116)"/>
</clipPath>
<clipPath id="clip5_1260_33523">
<rect width="50" height="29" fill="white" transform="translate(300.408 220.937) rotate(65.8787)"/>
</clipPath>
<clipPath id="clip6_1260_33523">
<rect width="50" height="29" fill="white" transform="translate(182.957 78.9574) rotate(-95.9248)"/>
</clipPath>
<clipPath id="clip7_1260_33523">
<rect width="40" height="46" fill="white" transform="translate(281.6 18.9897) rotate(48.1789)"/>
</clipPath>
<clipPath id="clip8_1260_33523">
<rect width="40" height="46" fill="white" transform="translate(122.676 218.123) rotate(48.1789)"/>
</clipPath>
</defs>
</svg>
