<svg width="249" height="93" viewBox="0 0 249 93" fill="none" xmlns="http://www.w3.org/2000/svg">
<path d="M32.641 14.4926C34.3598 13.772 35.7103 13.4517 37.0608 12.9713C37.6747 12.7311 38.4113 12.5709 39.1479 12.3307C39.8846 12.0905 40.744 11.8503 41.7262 11.6101C42.4628 11.3699 43.3222 11.1297 44.3044 10.8895C45.1638 10.6493 46.146 10.4091 47.1281 10.1688C48.1103 9.92863 48.9697 9.68843 49.9519 9.44822C50.8113 9.20801 51.6707 9.04787 52.5301 8.88773C58.546 7.52655 64.5618 6.40557 70.8232 5.5248C88.3796 3.04265 106.427 2.16188 124.475 2.32202C127.421 2.40209 130.368 2.40209 133.314 2.56223L137.734 2.72237L142.154 2.96258C142.645 2.96258 143.136 3.04265 143.504 3.04265C143.627 3.04265 143.75 3.04265 143.995 3.04265C152.098 3.52306 160.201 4.24369 168.182 5.20453C170.391 5.44473 174.32 6.00522 177.758 6.48564C181.195 7.04613 184.142 7.52654 184.633 7.60661C185.492 7.76675 188.316 8.24717 191.14 8.80766C192.613 9.12794 193.964 9.36815 195.191 9.60835C196.296 9.84856 197.279 10.0888 197.647 10.1688C198.015 10.2489 198.997 10.4891 200.348 10.8094C201.698 11.1297 203.417 11.6101 205.259 12.0905C206.978 12.5709 208.819 13.1314 210.415 13.6118C212.011 14.0923 213.239 14.5727 213.976 14.8129C214.835 15.1332 215.694 15.4534 216.554 15.7737L219.009 16.8146C220.728 17.4552 222.201 18.2559 223.797 18.9765C226.621 20.3377 230.673 22.5796 234.11 25.1419C237.671 27.7041 240.249 30.6667 241.722 32.7485C242.827 34.4299 243.687 36.1915 244.055 37.953C244.055 38.1932 244.178 38.3534 244.178 38.6736C244.3 39.2341 244.423 39.8747 244.423 40.5152C244.423 41.1558 244.546 41.8764 244.546 42.517C244.3 46.3603 242.459 50.2037 239.635 53.6466C236.811 57.1697 233.128 60.2924 228.954 63.1749C220.483 68.9399 210.17 73.4239 199.243 77.107C191.508 79.6693 183.651 81.7511 175.18 83.3525C167.813 84.7937 160.079 85.7546 152.467 86.7154C148.661 87.1158 144.732 87.5962 140.926 87.9165C138.962 88.0766 137.12 88.2367 135.156 88.3969L129.386 88.7972C125.702 89.0374 122.633 89.1976 119.318 89.3577C116.003 89.4378 112.32 89.5979 107.409 89.5178C103.112 89.5979 95.1321 89.2776 90.8351 89.0374C88.8707 88.9574 87.1519 88.7972 85.6786 88.7171C84.0826 88.6371 82.6093 88.557 81.2588 88.3969C79.7856 88.2367 78.3123 88.1567 76.839 87.9965C75.243 87.8364 73.6469 87.5962 71.6826 87.436C63.2113 86.3951 54.8628 84.8738 46.8826 82.7119C38.9024 80.55 31.2905 77.8277 24.6608 74.3046C21.2232 72.463 17.9083 70.3812 15.2073 68.1393C14.5935 67.6588 14.1024 67.1784 13.6113 66.7781C13.1202 66.2977 12.5063 65.8973 12.138 65.4169C11.2786 64.456 10.2964 63.5753 9.55981 62.6144C7.96377 60.6928 6.73605 58.691 5.6311 56.6092C5.14001 55.6484 4.64892 54.6876 4.40338 53.7267C4.28061 53.2463 4.03506 52.7659 3.91229 52.2855C3.78952 51.805 3.78952 51.3246 3.66674 50.8442C3.54397 50.3638 3.54397 49.8834 3.54397 49.3229C3.54397 48.8425 3.4212 48.282 3.54397 47.8016C3.66674 46.7607 3.66674 45.6397 4.03506 44.5187C4.89447 40.8355 6.61328 37.3124 9.31427 34.0296C12.0153 30.7467 15.4529 27.7041 19.5044 24.9817C25.8885 20.658 33.2549 17.3751 40.8667 14.7328C48.6014 12.0104 56.8271 9.92863 65.6667 8.24717C68.245 7.76675 70.8232 7.28634 73.5242 6.96606C74.8747 6.80592 76.1024 6.56571 77.4529 6.40557C78.4351 6.16536 79.7856 6.00522 81.0133 5.84508C93.9044 4.00348 105.813 3.44299 119.809 3.12272C122.756 3.04265 127.667 2.96258 132.087 2.80244C136.506 2.72237 140.435 2.6423 141.294 2.48216C142.277 2.32202 140.803 2.00174 141.786 1.76153C142.768 1.52132 141.172 1.20104 138.348 0.880766C136.875 0.720627 135.156 0.560487 133.314 0.480418C131.473 0.400348 129.386 0.320278 127.421 0.320278C123.247 0.320278 119.073 0.480418 114.898 0.560487C110.601 0.800696 106.427 0.960836 102.253 1.28111C93.5361 1.8416 84.942 2.6423 76.4707 3.92341C69.7182 4.96432 63.0885 6.40557 56.7044 7.84682C49.9519 9.44822 43.5677 11.3699 36.6925 13.772C31.9044 15.5335 26.9935 17.6153 22.5737 20.0174C18.0311 22.4996 13.9796 25.302 10.542 28.3446C6.73605 31.7076 3.78952 35.5509 1.94793 39.7145C-0.0164233 43.8782 -0.38474 48.282 0.351893 52.5257C1.2113 56.7694 3.54397 60.8529 6.73605 64.6162C9.92813 68.2994 14.2252 71.5822 19.0133 74.4648C25.0291 78.148 32.1499 81.0305 39.5163 83.3525C46.8826 85.6745 54.6172 87.436 62.3519 88.7171C73.0331 90.4787 84.0826 91.4395 95.0093 91.8399C105.936 92.2402 116.986 92 127.912 91.3594C138.839 90.7189 149.643 89.5979 160.447 88.1567C163.148 87.8364 165.849 87.356 168.55 86.9556C171.251 86.5553 173.829 85.9948 176.53 85.5144C181.809 84.3934 186.966 83.2724 191.999 81.8312C202.067 79.0287 211.766 75.5057 220.605 71.1819C226.498 68.2193 231.287 65.1767 235.461 61.8938C236.566 61.0931 237.425 60.2124 238.407 59.3316C239.39 58.4508 240.249 57.49 241.108 56.6092C241.968 55.6484 242.704 54.6876 243.564 53.6466C243.932 53.0862 244.3 52.6057 244.669 52.0453C245.037 51.4848 245.405 50.9243 245.651 50.3638C245.896 49.8834 246.142 49.403 246.388 48.9225L246.51 48.6823C248.72 44.2785 248.475 38.6736 246.265 34.1897C244.055 29.6258 239.758 25.6223 234.724 22.2594C229.69 18.8964 223.92 16.094 217.782 13.6919C210.784 10.8895 203.049 8.88773 195.437 7.20627C187.702 5.5248 179.845 4.24369 172.11 3.20279C157.378 1.36118 142.522 0.240209 127.544 0C123.738 0 120.055 0 116.249 0C112.566 0.0800696 108.76 0.0800696 105.077 0.240209C97.5875 0.480418 90.2212 0.960835 82.7321 1.68146C66.4034 3.28285 49.9519 5.68494 35.342 10.4091C34.3598 10.7293 33.3776 11.0496 32.3955 11.3699C31.4133 11.6902 30.5539 12.0905 29.5717 12.4108C28.7123 12.8111 27.8529 13.1314 26.9935 13.4517C26.2568 13.852 25.3974 14.2524 24.7836 14.5727C23.3103 15.2933 22.3281 15.7737 21.5915 16.1741C20.8549 16.5744 20.3638 16.8146 19.9955 17.1349C18.8905 17.8555 18.645 18.2559 19.1361 18.416C19.7499 18.5762 21.4687 18.2559 23.8014 17.4552C26.1341 16.8947 29.2034 15.7737 32.641 14.4926Z" fill="#020202"/>
</svg>
