<svg width="1384" height="722" viewBox="0 0 1384 722" fill="none" xmlns="http://www.w3.org/2000/svg">
<path d="M664.327 676.945C663.789 677.3 663.302 678.454 663.54 679.04C664.328 681.314 665.232 683.54 666.137 685.767C666.328 686.235 666.636 686.656 666.778 687.008C669.929 691.735 673.149 696.298 677.959 699.395C679.42 700.302 680.929 701.327 682.853 700.682C685.995 699.678 688.666 698.183 690.292 694.792C681.87 688.52 676.046 680.238 671.437 670.915C667.752 671.593 666.738 675.146 664.327 676.945ZM665.448 680.039C665.496 680.156 665.544 680.273 665.544 680.273C665.544 680.273 665.496 680.156 665.448 680.039Z" fill="#5736AE"/>
<path d="M1224.94 51.3984C1225.34 51.9005 1226.54 52.2756 1227.1 51.9828C1229.29 50.9822 1231.42 49.8695 1233.55 48.7568C1234 48.5225 1234.39 48.1761 1234.72 48.0004C1239.13 44.4143 1243.36 40.7745 1245.99 35.6917C1246.75 34.1503 1247.63 32.5503 1246.8 30.6974C1245.51 27.6643 1243.76 25.1484 1240.23 23.8524C1234.79 32.8329 1227.1 39.4197 1218.26 44.8948C1219.29 48.4986 1222.92 49.1703 1224.94 51.3984ZM1227.91 49.9878C1228.02 49.9293 1228.14 49.8707 1228.14 49.8707C1228.14 49.8707 1228.02 49.9293 1227.91 49.9878Z" fill="#5736AE"/>
<path d="M1332.88 257.43C1333.11 258.031 1334.13 258.751 1334.76 258.642C1337.15 258.353 1339.51 257.939 1341.88 257.525C1342.38 257.438 1342.86 257.226 1343.23 257.16C1348.52 255.08 1353.66 252.897 1357.7 248.85C1358.9 247.613 1360.22 246.355 1359.99 244.339C1359.68 241.054 1358.78 238.128 1355.81 235.822C1347.9 242.729 1338.57 246.672 1328.49 249.206C1328.37 252.951 1331.63 254.694 1332.88 257.43ZM1336.14 256.988C1336.26 256.966 1336.39 256.944 1336.39 256.944C1336.39 256.944 1336.26 256.966 1336.14 256.988Z" fill="#5736AE"/>
<path d="M855.544 667.427C862.041 673.783 868.787 678.892 876.762 681.835C879.458 682.861 882.932 682.439 885.836 680.055C884.777 679.188 884.209 678.497 883.364 678.033C878.371 674.494 873.366 671.08 868.512 667.427C864.716 664.64 860.939 664.27 855.544 667.427Z" fill="#5736AE"/>
<path d="M1084.25 201.797C1092.79 198.692 1100.31 194.824 1106.42 188.908C1108.51 186.922 1109.64 183.608 1108.74 179.958C1107.5 180.538 1106.64 180.751 1105.85 181.311C1100.5 184.279 1095.25 187.313 1089.86 190.107C1085.7 192.322 1083.74 195.567 1084.25 201.797Z" fill="#5736AE"/>
<path d="M1219.64 612.338C1227.3 617.234 1234.95 620.86 1243.35 622.113C1246.2 622.568 1249.52 621.446 1251.87 618.52C1250.66 617.888 1249.96 617.327 1249.04 617.045C1243.43 614.598 1237.84 612.278 1232.34 609.692C1228.05 607.738 1224.28 608.146 1219.64 612.338Z" fill="#5736AE"/>
<path d="M1316.96 290.87C1326.04 291.133 1334.47 290.31 1342.32 287.061C1345 285.986 1347.26 283.319 1347.78 279.598C1346.41 279.68 1345.53 279.557 1344.59 279.789C1338.52 280.576 1332.53 281.464 1326.49 282.073C1321.81 282.6 1318.78 284.891 1316.96 290.87Z" fill="#5736AE"/>
<path d="M198.684 564.279C200.439 564.521 201.77 564.641 203.043 565.007C204.768 565.371 205.872 564.824 206.933 563.381C208.071 561.885 209.382 560.476 210.741 559.138C214.616 555.158 218.616 551.195 222.442 547.145C223.569 545.966 224.522 544.698 225.66 543.202C221.922 542.052 218.973 542.726 216.333 545.35C211.176 550.616 206.02 555.881 200.864 561.147C200.077 561.992 199.559 563.065 198.684 564.279Z" fill="#5736AE"/>
<path d="M1321.64 683.142C1316.51 681.486 1311.3 680.12 1306.18 678.65C1304.95 678.323 1303.56 678.389 1301.32 678.273C1306.52 686.843 1315.01 687.271 1322.26 689.993C1324.45 690.771 1326.74 691.631 1330.04 689.288C1329.71 688.484 1329.17 687.33 1328.82 686.154C1327.03 684.488 1323.92 683.816 1321.64 683.142Z" fill="#5736AE"/>
<path d="M978.426 558.554C986.344 563.016 994.181 566.209 1002.65 566.991C1005.52 567.286 1008.76 565.981 1010.95 562.928C1009.7 562.364 1008.98 561.843 1008.04 561.613C1002.3 559.484 996.587 557.479 990.954 555.204C986.567 553.492 982.822 554.111 978.426 558.554Z" fill="#5736AE"/>
<path d="M163.209 6.83659C168.604 14.151 174.444 20.275 181.845 24.4567C184.342 25.9021 187.839 26.0419 191.087 24.1533C190.18 23.1284 189.73 22.3552 188.971 21.7619C184.61 17.4684 180.216 13.2971 176.009 8.91358C172.709 5.55494 169.04 4.5844 163.209 6.83659Z" fill="#5736AE"/>
<path d="M884.795 40.8708C886.564 40.9883 887.9 41.014 889.195 41.2894C890.943 41.5317 892.005 40.9082 892.961 39.3941C893.99 37.8218 895.199 36.3245 896.46 34.8938C900.044 30.6516 903.753 26.4178 907.284 22.1089C908.324 20.8529 909.186 19.5219 910.215 17.9496C906.404 17.0653 903.51 17.9458 901.062 20.7489C896.291 26.3636 891.52 31.9783 886.749 37.593C886.024 38.4914 885.583 39.598 884.795 40.8708Z" fill="#5736AE"/>
<path d="M30.4225 155.184C29.5101 152.409 29.0796 149.153 25.7086 147.706C19.7969 145.146 14.0679 142.369 8.08973 139.975C6.097 139.177 3.82192 138.362 1.57914 139.873C1.19456 146.369 3.15347 148.696 9.23161 150.359C14.6455 151.757 19.8432 153.935 25.1739 155.781C26.2865 156.13 27.2662 156.811 28.329 157.044C29.7905 157.244 30.804 156.397 30.4225 155.184Z" fill="#5736AE"/>
<path d="M182.422 68.0659C183.541 68.6681 185.819 69.1357 186.349 68.577C188.746 66.3784 191.983 64.7456 191.861 61.3061C183.683 55.3347 177.336 48.004 169.829 41.2639C169.019 41.7862 168.385 42.2742 167.751 42.7623C167.293 43.2161 166.729 43.5993 166.48 44.1945C164.349 49.1665 162.063 50.0673 167.405 55.0419C170.651 58.1462 173.827 61.3554 177.073 64.4597C178.89 65.8374 180.602 67.1444 182.422 68.0659Z" fill="#5736AE"/>
<path d="M929.714 28.8056C929.165 29.9523 928.805 32.2499 929.388 32.7522C931.698 35.0434 933.481 38.1994 936.911 37.9153C942.49 29.4647 949.513 22.7797 955.892 14.9628C955.332 14.1786 954.815 13.5682 954.297 12.9577C953.822 12.5211 953.413 11.9764 952.807 11.756C947.74 9.86113 946.732 7.62079 942.015 13.1909C939.067 16.5801 936.011 19.9035 933.064 23.2927C931.773 25.1727 930.548 26.9446 929.714 28.8056Z" fill="#5736AE"/>
<path d="M1232.28 501.385C1231.01 501.474 1228.83 502.296 1228.69 503.051C1227.83 506.19 1225.97 509.3 1227.91 512.142C1238.01 512.82 1247.3 515.625 1257.24 517.311C1257.65 516.437 1257.92 515.685 1258.2 514.934C1258.34 514.305 1258.62 513.68 1258.51 513.044C1257.65 507.703 1259.1 505.72 1251.93 504.369C1247.53 503.48 1243.13 502.464 1238.73 501.575C1236.45 501.381 1234.31 501.191 1232.28 501.385Z" fill="#5736AE"/>
<path d="M1274.47 689.982C1273.2 689.894 1270.93 690.406 1270.68 691.133C1269.4 694.124 1267.12 696.944 1268.65 700.028C1278.56 702.103 1287.36 706.171 1296.98 709.222C1297.5 708.413 1297.88 707.707 1298.25 707.001C1298.48 706.399 1298.84 705.818 1298.82 705.173C1298.72 699.764 1300.43 698.003 1293.51 695.668C1289.28 694.176 1285.06 692.559 1280.82 691.066C1278.6 690.559 1276.5 690.073 1274.47 689.982Z" fill="#5736AE"/>
<path d="M694.307 12.0673C695.623 9.51929 695.296 6.93149 693.744 4.68398C692.794 3.2883 691.419 2.19384 690.07 0.817696C686.172 7.89831 682.465 14.7693 678.639 21.6862C676.438 25.7997 677.014 29.3768 680.832 32.9155C683.688 29.0905 686.446 25.711 688.876 22.1872C690.881 18.9646 692.512 15.4799 694.307 12.0673Z" fill="#5736AE"/>
<path d="M30.2288 479.875C31.4767 481.133 32.4618 482.036 33.2504 483.1C34.4 484.437 35.6092 484.673 37.3282 484.17C39.1408 483.673 41.0381 483.35 42.9307 483.112C48.4259 482.302 54.0102 481.583 59.5099 480.689C61.1214 480.436 62.6483 480.008 64.461 479.51C62.1892 476.326 59.4371 475.071 55.7455 475.553C48.4514 476.605 41.1574 477.658 33.8633 478.71C32.7249 478.904 31.662 479.442 30.2288 479.875Z" fill="#5736AE"/>
<path d="M70.3451 238.85C62.639 237.6 54.851 236.508 46.6244 235.291C47.2024 244.141 48.3499 245.235 56.022 245.965C62.2966 246.478 68.446 247.431 74.6387 248.104C76.4363 248.325 78.3111 248.787 80.2678 249.09C78.9054 242.352 76.6923 240.005 70.3451 238.85Z" fill="#5736AE"/>
<path d="M345.665 676.46C348.462 675.619 351.728 675.273 353.261 671.94C355.972 666.096 358.894 660.44 361.44 654.525C362.289 652.553 363.162 650.3 361.708 648.019C355.225 647.468 352.849 649.366 351.03 655.4C349.495 660.776 347.185 665.916 345.203 671.198C344.825 672.301 344.119 673.263 343.859 674.319C343.622 675.775 344.443 676.81 345.665 676.46Z" fill="#5736AE"/>
<path d="M705.746 684.78C705.232 685.171 704.824 686.355 705.101 686.924C706.039 689.14 707.091 691.3 708.143 693.461C708.365 693.916 708.7 694.316 708.866 694.657C712.326 699.162 715.845 703.498 720.852 706.266C722.371 707.073 723.945 707.995 725.821 707.222C728.89 706.01 731.454 704.339 732.849 700.846C724.026 695.154 717.659 687.28 712.435 678.287C708.804 679.211 708.03 682.824 705.746 684.78ZM707.072 687.793C707.127 687.906 707.183 688.02 707.183 688.02C707.183 688.02 707.127 687.906 707.072 687.793Z" fill="#5736AE"/>
<g clip-path="url(#clip0_226_4051)">
<path fill-rule="evenodd" clip-rule="evenodd" d="M600.092 122.441L621.562 117.808L636.97 132.442L636.51 107.922L657.834 100.74L639.107 92.1769L634.971 71.9577L620.6 88.9705L598.102 84.5427L609.043 102.286L600.092 122.441Z" fill="#5736AE"/>
</g>
<g clip-path="url(#clip1_226_4051)">
<path fill-rule="evenodd" clip-rule="evenodd" d="M385.951 76.8246C386.483 80.0923 387.727 82.986 389.685 85.5056L390.498 86.5345C391.81 88.2562 400.091 95.5525 400.091 95.5525L404.575 94.5653L397.136 80.5528L399.764 77.6743L407.696 93.9286L411.552 93.0436L411.432 70.1005L415.217 71.162L414.778 92.2608L418.759 91.3554L422.133 85.1306C424.495 80.6183 425.896 75.7464 425.037 70.4679C423.154 59.68 413.051 52.2928 402.243 54.0506C391.435 55.8084 384.193 66.0163 385.951 76.8246ZM401.985 114.337L407.39 113.458C408.006 116.454 410.782 118.453 413.798 117.963C416.815 117.472 418.814 114.696 418.449 111.659L423.728 110.801L422.623 93.6942L397.919 99.6468L401.985 114.337ZM401.385 101.921L413.871 99.3745L414.3 102.014L401.794 104.435L401.385 101.921ZM402.25 105.651L412.178 104.036L412.587 106.55L402.91 108.123L402.25 105.651Z" fill="#5736AE"/>
</g>
<g clip-path="url(#clip2_226_4051)">
<path fill-rule="evenodd" clip-rule="evenodd" d="M237.147 212.201L252.84 187.932C252.84 187.932 244.087 182.868 240.43 189.077C236.161 185.365 232.511 182.17 232.511 182.17C232.511 182.17 234.816 178.421 230.908 174.704C226.826 180.281 214.272 196.933 214.272 196.933C214.272 196.933 220.718 199.672 223.551 196.026L232.907 200.527C232.907 200.527 228.825 208.129 237.147 212.201ZM245.689 204.148L267.896 215.293L249.001 199.026L245.689 204.148Z" fill="#5736AE"/>
</g>
<g clip-path="url(#clip3_226_4051)">
<path fill-rule="evenodd" clip-rule="evenodd" d="M441 619.737C441 634.312 452.825 646 467.263 646C479.088 646 489.125 638.162 492.425 627.438L466.025 620.287L464.513 593.612C451.312 594.987 441 606.125 441 619.737ZM469.6 617.263L495.312 622.9C497.1 614.788 495.312 607.225 490.088 600.9C485 594.438 477.85 591 469.6 591V617.263Z" fill="#5736AE"/>
</g>
<g clip-path="url(#clip4_226_4051)">
<path fill-rule="evenodd" clip-rule="evenodd" d="M776.063 19C771.074 19 766.655 23.134 763.803 30.6894C756.106 29.1213 750.261 30.5468 747.552 34.6809C744.701 39.2426 746.269 45.6574 752.257 52.5C740.71 66.4702 746.982 77.5894 764.089 74.1681C770.076 89.8489 782.335 89.8489 788.323 74.1681C805.286 77.5894 811.844 66.4702 800.155 52.5C805.999 45.6574 807.567 39.2426 804.859 34.8234C802.15 30.5468 796.306 29.1213 788.465 30.6894C785.472 23.2766 781.052 19 776.063 19ZM762.806 33.9681C761.95 36.9617 761.38 40.383 760.952 44.2319C758.386 46.2277 756.248 48.0809 754.395 49.934C749.406 43.9468 748.693 39.1 750.403 36.534C751.972 34.2532 756.106 32.8277 762.806 33.9681ZM760.667 48.9362C760.667 50.0766 760.667 51.3596 760.667 52.5C760.667 53.783 760.667 54.9234 760.667 56.2064C759.242 54.9234 757.816 53.783 756.676 52.5C757.959 51.3596 759.242 50.0766 760.667 48.9362ZM761.095 60.7681C761.523 64.617 762.093 68.0383 762.948 71.0319C749.833 73.5979 745.414 65.7574 754.395 55.066C756.391 56.9192 758.529 58.9149 761.095 60.7681ZM789.32 71.0319C790.176 68.0383 790.746 64.617 791.174 60.7681C793.74 58.7723 795.878 56.9192 797.731 54.9234C806.855 65.7575 802.435 73.5979 789.32 71.0319ZM791.459 56.0638C791.459 54.9234 791.459 53.6404 791.459 52.5C791.459 51.217 791.459 50.0766 791.459 48.7936C792.884 50.0766 794.31 51.217 795.45 52.3574C794.31 53.6404 792.884 54.9234 791.459 56.0638ZM791.174 44.2319C790.746 40.383 790.176 36.9617 789.32 33.9681C796.02 32.6851 800.297 34.1106 801.723 36.534C803.291 39.1 802.578 43.9468 797.731 49.934C795.878 48.0809 793.597 46.0851 791.174 44.2319ZM776.063 22.4213C778.914 22.4213 782.335 25.2723 784.901 31.5447C782.193 32.4 779.199 33.5404 776.063 34.966C772.927 33.5404 770.076 32.4 767.225 31.5447C769.791 25.1298 773.212 22.4213 776.063 22.4213ZM785.899 34.8234C786.469 36.8192 786.897 38.9574 787.325 41.5234C786.327 40.8106 785.329 40.2404 784.189 39.5277C782.763 38.6723 781.338 37.817 779.912 36.9617C782.05 36.1064 784.046 35.3936 785.899 34.8234ZM787.752 46.0851C787.895 48.0809 788.038 50.2192 788.038 52.5C788.038 54.7809 787.895 56.9192 787.752 58.9149C786.042 60.0553 784.331 61.3383 782.335 62.4787C780.197 63.9043 778.059 65.0447 776.063 66.0426C774.067 65.0447 771.929 63.7617 769.648 62.4787C767.652 61.1957 765.942 60.0553 764.231 58.9149C764.089 56.9192 763.946 54.7809 763.946 52.5C763.946 50.2192 763.946 48.0809 764.231 46.0851C765.942 44.9447 767.652 43.6617 769.648 42.5213C771.929 41.0957 773.925 39.9553 775.92 38.9574C777.916 39.9553 780.055 41.0957 782.193 42.5213C784.331 43.6617 786.184 44.8021 787.752 46.0851ZM787.325 63.4766C787.04 65.9 786.469 68.1809 785.899 70.1766C784.046 69.6064 782.05 68.8936 779.912 68.0383C781.338 67.3255 782.763 66.4702 784.189 65.4723C785.329 64.9021 786.327 64.1894 787.325 63.4766ZM784.901 73.4553C780.34 85.5723 771.786 85.4298 767.225 73.4553C769.933 72.7426 772.927 71.6021 776.063 70.034C779.199 71.4596 782.193 72.6 784.901 73.4553ZM766.227 70.3192C765.657 68.3234 765.229 66.0426 764.801 63.6191C765.799 64.3319 766.797 64.9021 767.795 65.6149C769.22 66.4702 770.789 67.3255 772.072 68.1809C770.076 68.8936 768.08 69.7489 766.227 70.3192ZM764.801 41.5234C765.086 39.1 765.657 36.8192 766.227 34.8234C768.08 35.3936 770.076 36.1064 772.214 36.9617C770.789 37.6745 769.363 38.5298 767.938 39.5277C766.797 40.0979 765.799 40.8106 764.801 41.5234Z" fill="#5736AE"/>
</g>
<g clip-path="url(#clip5_226_4051)">
<path fill-rule="evenodd" clip-rule="evenodd" d="M1080.82 103.066L1117.39 132.371L1159.5 72.0159L1104.82 52.0582L1080.82 103.066ZM1107.1 58.6156L1149.81 75.3358L1139.18 88.7663L1101.7 70.8673L1107.1 58.6156ZM1126.98 89.9811L1133.89 93.7557L1130.03 101.171L1123.13 97.0368L1126.98 89.9811ZM1117.38 84.7428L1123.59 88.1323L1119.82 95.0469L1113.76 91.3752L1117.38 84.7428ZM1108.78 80.0438L1114.42 83.1251L1110.8 89.7575L1105.31 86.394L1108.78 80.0438ZM1101.01 75.807L1106.09 78.5802L1102.7 84.7892L1097.7 81.8749L1101.01 75.807ZM1096.01 84.9794L1100.93 88.0348L1097.47 94.385L1092.69 91.0473L1096.01 84.9794ZM1103.54 89.6396L1109.03 93.0031L1105.41 99.6355L1100.07 95.9897L1103.54 89.6396ZM1112.05 94.839L1118.17 98.7288L1114.46 105.862L1108.42 101.831L1112.05 94.839ZM1091 94.1519L1095.91 97.5665L1092.45 103.917L1087.69 100.22L1091 94.1519ZM1098.3 99.2354L1103.56 103.022L1099.86 109.796L1094.54 105.791L1098.3 99.2354ZM1106.51 104.999L1112.47 109.171L1108.76 116.304L1102.95 111.85L1106.51 104.999ZM1121.34 100.642L1128.17 104.917L1116.87 122.928L1111.84 118.717L1121.34 100.642ZM1161.38 75.6092L1118.12 138.081L1080.37 107.582L1083.52 115.898L1118.88 145.087L1161.27 82.8715L1161.38 75.6092Z" fill="#5736AE"/>
</g>
<g clip-path="url(#clip6_226_4051)">
<path fill-rule="evenodd" clip-rule="evenodd" d="M158.704 451.175L170.302 448.919L169.719 401.993L193.857 448.371L199.057 409.673L213.254 432.957L226.029 429.163L227.115 437.933L211.258 441.869L203.577 427.878L197.713 468.3L176.385 430.732L176.744 457.919L160.888 461.855L158.704 451.175Z" fill="#5736AE"/>
</g>
<g clip-path="url(#clip7_226_4051)">
<path fill-rule="evenodd" clip-rule="evenodd" d="M106.691 162.403C112.146 175.076 126.844 180.929 139.403 175.524C142.599 174.148 145.387 172.136 147.636 169.815C149.695 171.77 151.316 174.591 150.375 178.379C157.081 176.982 160.175 172.537 160.345 166.645C156.495 167.761 153.083 167.064 150.649 165.811C154.817 159.146 155.751 150.625 152.36 142.747C146.955 130.188 132.257 124.335 119.698 129.741C107.139 135.146 101.286 149.844 106.691 162.403ZM117.466 143.421C117.466 143.421 110.917 150.841 116.039 159.597C115.881 163.319 112.404 162.786 111.718 162.134C111.031 161.482 104.795 149.822 113.365 140.179C117.932 138.214 117.466 143.421 117.466 143.421ZM152.102 176.418C151.035 172.682 153.917 168.059 159.108 168.802C155.504 170.488 152.102 176.418 152.102 176.418Z" fill="#5736AE"/>
</g>
<g clip-path="url(#clip8_226_4051)">
<path fill-rule="evenodd" clip-rule="evenodd" d="M515.834 10L496.302 15.8732L506.409 33.4927L512.419 28.5756L509.141 61.2195L545.609 66L542.331 31.9902L548.478 35.9512L556.263 18.6049L534.956 10.4098C534.956 10.4098 534.956 18.3317 525.668 18.3317C516.244 18.4683 515.834 10 515.834 10ZM493.297 16.8293L489.609 17.922L502.175 37.0439L504.087 35.5415L493.297 16.8293ZM550.936 37.4537L553.941 39.3659L562 20.7902L559.268 19.6976L550.936 37.4537Z" fill="#5736AE"/>
</g>
<g clip-path="url(#clip9_226_4051)">
<path fill-rule="evenodd" clip-rule="evenodd" d="M219.677 281.497L219.208 269.586L171.195 261.384L172.202 283.266L176.451 283.05L175.951 268.67L178.589 268.532L179.005 282.966L180.892 282.95L180.684 277.037L183.322 276.899L183.53 282.812L185.363 282.712L185.209 276.883L187.763 276.799L187.971 282.712L189.804 282.612L189.596 276.699L192.234 276.56L192.442 282.474L194.329 282.458L193.868 270.187L196.506 270.048L196.883 282.374L198.8 282.22L198.593 276.307L201.2 276.306L201.408 282.22L203.241 282.12L203.033 276.207L205.672 276.068L205.879 281.982L207.766 281.966L207.505 275.968L210.112 275.968L210.32 281.881L212.153 281.782L211.815 272.869L214.507 272.816L214.791 281.643L219.677 281.497Z" fill="#5736AE"/>
</g>
<g clip-path="url(#clip10_226_4051)">
<path fill-rule="evenodd" clip-rule="evenodd" d="M651.209 559.458L652.692 571.148L658.157 570.455L656.674 558.765L651.209 559.458ZM686.359 556.85L687.842 568.54L693.308 567.847L691.825 556.156L686.359 556.85ZM658.994 591.638C660.794 590.021 662.387 589.202 663.905 589.009C664.968 588.874 665.765 589.082 666.431 589.46C667.096 589.838 667.476 590.407 667.573 591.166C667.65 591.774 667.556 592.248 667.158 592.762C666.76 593.275 666.097 594.13 664.866 595.366C662.403 597.839 660.964 599.872 660.207 601.203C659.621 602.665 659.397 604.545 659.686 606.822L660.052 609.707L675.841 607.704L675.244 602.997L665.679 604.211C665.564 603.3 665.771 602.502 665.998 601.856C666.376 601.191 667.172 600.165 668.516 598.606C670.411 596.514 671.736 594.803 672.361 593.644C672.966 592.333 673.267 591.061 673.055 589.391C672.805 587.417 671.834 585.844 670.313 584.802C668.641 583.78 666.742 583.404 664.313 583.712C662.491 583.943 660.423 584.669 658.129 586.04L658.842 591.657L658.994 591.638ZM687.953 587.655C688.582 588.964 689.136 590.899 689.483 593.632C689.829 596.365 689.776 598.377 689.494 599.801C689.212 601.225 688.53 601.929 687.619 602.044C686.708 602.16 685.853 601.497 685.072 600.208C684.443 598.899 683.87 596.812 683.523 594.079C683.196 591.498 683.249 589.486 683.531 588.062C683.813 586.638 684.495 585.934 685.558 585.799C686.64 585.816 687.344 586.498 687.953 587.655ZM679.047 585.546C677.665 588.035 677.292 591.167 677.773 594.963C678.062 597.24 678.635 599.327 679.493 601.224C680.351 603.121 681.625 604.656 683.146 605.697C684.666 606.738 686.413 607.134 688.387 606.883C690.968 606.556 692.959 605.224 694.34 602.734C695.721 600.245 696.095 597.112 695.613 593.317C695.074 589.066 693.891 585.822 691.932 583.756C689.973 581.691 687.713 580.898 685.132 581.225C682.399 581.572 680.408 582.904 679.047 585.546ZM638.828 567.662L648.478 623.054L711.636 615.041L707.245 559.754L695.08 561.143L696.216 570.1L685.589 571.449L684.452 562.491L660.122 565.269L661.066 572.709L650.438 574.057L649.475 566.466L638.828 567.662ZM647.753 579.643L701.274 574.704L706.046 609.888L652.947 616.933L647.753 579.643Z" fill="#5736AE"/>
</g>
<g clip-path="url(#clip11_226_4051)">
<path fill-rule="evenodd" clip-rule="evenodd" d="M256.833 63.1213L290.561 85.7146L286.113 44.0847C283.227 46.8088 278.014 46.0383 278.014 46.0383C278.014 46.0383 281.292 50.9625 273.906 56.2244C266.519 61.4863 261.918 56.2967 261.918 56.2967C261.918 56.2967 262.099 62.2511 256.833 63.1213ZM247.605 50.1222C246.28 52.609 244.054 58.218 250.219 59.7301C258.474 61.7991 259.908 53.9667 260.174 51.2676L260.756 51.1091C262.026 53.0153 265.966 57.3841 271.896 53.2063C279.283 47.9444 273.675 42.966 273.675 42.966C273.675 42.966 282.275 44.0031 284.925 39.0295C285.692 38.633 288.657 37.5762 291.249 40.4358C293.973 43.3219 296.33 40.4917 296.41 39.4068C296.543 38.0572 295.036 35.2776 292.018 36.599C288.551 38.1054 286.752 36.7812 285.642 34.7693C285.589 34.3458 285.536 33.9224 285.484 33.4989C284.561 28.4968 280.988 28.4682 277.52 29.9746C277.443 26.9312 276.518 23.9932 274.826 21.4517C269.221 13.033 257.022 11.4115 247.65 17.6514C238.278 23.8913 235.069 35.7716 240.675 44.1903C242.34 46.8641 244.827 48.8768 247.605 50.1222ZM248.415 22.0713C251.141 21.5172 250.425 24.4013 250.425 24.4013C250.425 24.4013 246.823 29.3214 246.239 32.232C245.655 35.1427 246.288 38.848 246.737 40.7272C247.186 42.6063 245.041 44.3781 243.825 42.2074C242.9 40.6455 241.63 38.7394 242.375 32.2827C242.908 26.1964 248.415 22.0713 248.415 22.0713Z" fill="#5736AE"/>
</g>
<g clip-path="url(#clip12_226_4051)">
<path fill-rule="evenodd" clip-rule="evenodd" d="M1095.98 268.911L1094.76 284.692L1104.49 283.185L1105.07 272.429L1108.57 270.674L1108.59 286.19L1094.56 288.47L1092.22 317.854L1122.23 317.761L1121.08 286.825L1133.29 314.39L1160.52 301.242L1146.91 276.562L1131.55 280.706L1125.08 266.57L1129 266.738L1133.92 276.32L1144.91 273.253L1135.56 256.427L1095.98 268.911ZM1095.65 264.67L1134.09 253.58L1131.29 249.868L1096.14 260.254L1095.65 264.67Z" fill="#5736AE"/>
</g>
<g clip-path="url(#clip13_226_4051)">
<path fill-rule="evenodd" clip-rule="evenodd" d="M69.3746 610.883L50.8656 593.002L39.415 608.06L70.002 633L110 580.767L92.903 568.689L69.3746 610.883Z" fill="#5736AE"/>
</g>
<g clip-path="url(#clip14_226_4051)">
<path fill-rule="evenodd" clip-rule="evenodd" d="M1184.96 409.194L1166.45 391.313L1155 406.371L1185.59 431.311L1225.59 379.078L1208.49 367L1184.96 409.194Z" fill="#5736AE"/>
</g>
<g clip-path="url(#clip15_226_4051)">
<path fill-rule="evenodd" clip-rule="evenodd" d="M7 357.896C7.81915 378.538 22.5638 395.085 40.4213 395.085C50.5787 395.085 59.5894 389.843 65.6511 381.651C67.4532 382.962 69.9106 383.781 72.3681 383.781C78.7575 383.781 84 378.538 84 372.149C84 366.087 79.5766 361.173 73.6787 360.517C73.8426 359.043 73.8426 357.404 73.8426 355.93C73.8426 355.111 73.8426 354.292 73.8426 353.636L7 357.896ZM68.7638 376.736C70.566 373.46 71.8766 369.855 72.8596 365.924C75.9723 366.087 78.4298 368.709 78.4298 371.985C78.4298 375.262 75.8085 378.047 72.5319 378.047C71.0574 378.047 69.7468 377.555 68.7638 376.736ZM39.6021 351.343C39.6021 351.343 54.5106 353.636 56.1489 345.117C57.4596 338.072 47.6298 340.53 46.3191 335.287C45.0085 330.209 55.4936 328.734 55.4936 328.734C55.4936 328.734 39.4383 324.638 37.8 333.321C36.3255 341.677 45.0085 339.875 47.466 343.151C49.2681 345.936 47.1383 350.36 39.6021 351.343ZM29.4447 352.981C29.4447 352.981 37.8 351.67 37.3085 346.755C36.817 342.824 31.9021 345.773 30.2638 343.151C28.6255 340.694 34.0319 338.072 34.0319 338.072C34.0319 338.072 24.6936 338.564 25.3489 343.643C26.0043 348.394 30.2638 345.936 32.2298 347.247C33.7043 348.394 33.3766 351.179 29.4447 352.981Z" fill="#5736AE"/>
</g>
<g clip-path="url(#clip16_226_4051)">
<path fill-rule="evenodd" clip-rule="evenodd" d="M22.9133 27.4109V49.3131L67.4022 50.3398L66.2044 24.8442L22.9133 27.4109ZM43.4467 52.0509L43.2756 58.2109L15.8978 58.8953L14.8711 72.0709H20.6889L20.0044 62.1465L43.2756 62.4887L43.1044 71.8998H48.9222L48.0667 62.4887L71.3378 62.8309L71.68 72.4131H77.4978L75.6156 57.3553L47.5533 58.0398L47.04 52.0509H43.4467ZM8.36889 74.1242L7 87.1287H27.8756L27.5333 74.1242H8.36889ZM36.6022 73.782L36.26 87.642L56.1089 88.1553L56.4511 73.782H36.6022ZM64.4933 74.1242L64.8356 86.6153L84 87.1287L83.3156 74.6376L64.4933 74.1242Z" fill="#5736AE"/>
</g>
<g clip-path="url(#clip17_226_4051)">
<path fill-rule="evenodd" clip-rule="evenodd" d="M1327.75 15.3354L1283 66.1164L1324.23 96.6107L1361.14 47.0778L1333.81 20.8668L1343.03 20.7306L1370.53 45.0243L1335.68 92.5572L1342.96 90.8644L1377.23 43.7759L1344.7 15.2293L1327.86 15.1965L1327.89 15.4466L1327.75 15.3354Z" fill="#5736AE"/>
</g>
<g clip-path="url(#clip18_226_4051)">
<path fill-rule="evenodd" clip-rule="evenodd" d="M1223.7 151.428L1217.66 163.329L1204.85 159.55L1205.57 172.754L1192.72 175.903L1200.06 187.06L1190.43 196.299L1202.33 202.342L1198.55 215.148L1211.75 214.431L1214.9 227.275L1226.06 219.94L1235.3 229.572L1241.34 217.672L1254.15 221.451L1253.43 208.246L1266.27 205.098L1258.94 193.94L1268.57 184.702L1256.67 178.659L1260.45 165.852L1247.25 166.569L1244.1 153.726L1232.94 161.061L1223.7 151.428ZM1225.71 197.274L1218.72 171.69L1236.37 171.023L1235.26 195.856L1225.71 197.274ZM1225.74 207.031C1225.25 203.732 1227.62 200.541 1230.92 200.051C1234.22 199.561 1237.41 201.928 1237.9 205.227C1238.39 208.526 1236.02 211.717 1232.72 212.207C1229.42 212.697 1226.23 210.33 1225.74 207.031Z" fill="#5736AE"/>
</g>
<g clip-path="url(#clip19_226_4051)">
<path fill-rule="evenodd" clip-rule="evenodd" d="M1308.79 427.175L1373.04 429.19L1365.46 396.701L1356.21 396.603L1356.32 387.687L1347.05 386.765L1347.28 395.672L1333.76 396.342L1333.87 387.757L1324.33 388.822L1324.55 397.729L1315.65 398.283L1308.79 427.175ZM1349.15 417.577L1357.56 417.366L1357.69 422.644L1349.28 422.855L1349.15 417.577ZM1348.96 409.989L1357.37 409.778L1357.5 415.056L1349.09 415.268L1348.96 409.989ZM1348.77 402.402L1357.18 402.19L1357.31 407.469L1348.9 407.68L1348.77 402.402ZM1337.93 417.859L1346.35 417.648L1346.48 422.926L1338.07 423.137L1337.93 417.859ZM1337.74 410.271L1346.15 410.06L1346.29 415.338L1337.87 415.55L1337.74 410.271ZM1337.55 402.684L1345.96 402.472L1346.1 407.751L1337.68 407.962L1337.55 402.684ZM1326.17 402.97L1334.58 402.759L1334.71 408.037L1326.3 408.248L1326.17 402.97ZM1326.36 410.558L1334.77 410.346L1334.91 415.624L1326.49 415.836L1326.36 410.558ZM1326.55 418.145L1334.96 417.934L1335.1 423.212L1326.68 423.424L1326.55 418.145ZM1303.24 429.625L1301.88 441.378L1377.76 439.47L1376.75 432.068L1303.24 429.625ZM1320.13 386.121C1320.13 386.121 1346.23 380.349 1359.39 385.134C1359.97 388.256 1359.6 393.547 1359.6 393.547L1374.45 393.173C1374.45 393.173 1380.55 373.379 1342.12 374.345C1305.01 375.278 1305.86 389.616 1306.51 395.542C1311.79 395.739 1320.03 395.202 1320.03 395.202L1320.13 386.121Z" fill="#5736AE"/>
</g>
<g clip-path="url(#clip20_226_4051)">
<path fill-rule="evenodd" clip-rule="evenodd" d="M935.865 121.788L938.904 125.133L971.763 93.8806L971.772 84.8464L990.79 83.1277L1000.64 94.3673L995.236 114.174L985.111 111.128L947.112 134.116L950.465 137.649L997.614 115.335L1008.18 78.989L970.797 82.4747L935.865 121.788ZM941.022 127.589L944.981 131.824L983.18 108.357L983.449 98.0278L973.646 97.3049L941.022 127.589ZM930.004 127.762C924.916 132.151 923.399 137.131 927.624 142.207C934.434 150.101 942.576 142.16 942.576 142.16L930.004 127.762ZM934.099 123.465L932.133 125.619L944.785 141.173L948.034 139.441L934.099 123.465Z" fill="#5736AE"/>
</g>
<path d="M793.988 146.107C795.759 146.046 797.092 145.937 798.408 146.081C800.171 146.147 801.165 145.42 801.964 143.818C802.831 142.15 803.883 140.539 804.994 138.989C808.134 134.409 811.4 129.824 814.481 125.183C815.39 123.829 816.113 122.418 816.979 120.75C813.099 120.253 810.308 121.419 808.153 124.454C803.97 130.519 799.786 136.584 795.602 142.649C794.971 143.616 794.644 144.761 793.988 146.107Z" fill="#5736AE"/>
<g clip-path="url(#clip21_226_4051)">
<path fill-rule="evenodd" clip-rule="evenodd" d="M578.94 691.6L576.14 705.04L587.62 703.36L585.24 721L599.94 694.12L585.8 696.78L587.48 691.6H578.94ZM616.46 688.8C616.46 688.8 622.06 686.98 620.52 680.82C619.12 675.22 613.52 676.2 611 678.02C615.76 673.26 616.32 665.98 612.12 662.34C607.36 658.14 599.52 660.66 597 670.88C596.58 653.66 588.04 649.32 577.96 651.56C569.7 653.38 562.56 663.6 569.42 675.92C560.46 667.24 549.96 676.76 557.8 688.8H616.46Z" fill="#5736AE"/>
</g>
<g clip-path="url(#clip22_226_4051)">
<path fill-rule="evenodd" clip-rule="evenodd" d="M1156.99 679.338L1177.89 703.675L1197.14 689.65L1174.31 668.612L1156.99 679.338ZM1142 674.388L1179.26 721L1192.46 712.338C1192.46 712.338 1186.41 705.188 1192.46 700.1C1198.51 695.15 1202.78 702.988 1202.78 702.988L1214.88 694.737L1169.78 655L1161.25 661.875C1161.25 661.875 1166.75 665.863 1164.14 669.438C1160.98 673.7 1156.02 670.538 1154.24 668.062C1149.84 670.4 1142 674.388 1142 674.388ZM1174.72 665.725L1201.4 690.062L1177.61 707.8L1153 679.062L1174.72 665.725Z" fill="#5736AE"/>
</g>
<g clip-path="url(#clip23_226_4051)">
<path fill-rule="evenodd" clip-rule="evenodd" d="M1129.6 548.541L1141.46 516.433L1172.98 517.025L1167.65 543.69C1165.8 542.052 1163.52 540.79 1160.78 540.056C1153.62 538.141 1146.49 540.971 1145.02 546.459C1143.56 551.946 1148.17 557.915 1155.48 559.871C1162.04 561.624 1168.5 559.433 1170.68 554.953L1170.79 555.146L1185.95 508.242L1132.53 500.328L1125.61 537.837C1123.87 536.392 1121.86 535.364 1119.42 534.712C1112.1 532.756 1105.13 535.627 1103.7 540.962C1102.24 546.449 1106.85 552.418 1114.16 554.375C1121.17 556.249 1127.91 553.642 1129.6 548.541Z" fill="#5736AE"/>
</g>
<g clip-path="url(#clip24_226_4051)">
<path fill-rule="evenodd" clip-rule="evenodd" d="M1309.65 564.001L1344.65 591.47L1383.56 567.043L1309.65 564.001ZM1309.97 570.559L1312.35 607.431L1328.4 584.856L1309.97 570.559ZM1380.65 573.404L1363.42 585.879L1374.95 612.771L1380.65 573.404ZM1314.02 613.243L1373.07 617.985L1356.26 588.3L1343.9 597.903L1331.4 588.649L1314.02 613.243Z" fill="#5736AE"/>
</g>
<g clip-path="url(#clip25_226_4051)">
<path fill-rule="evenodd" clip-rule="evenodd" d="M143.838 708.811L143.305 721.264L155.58 710.057L165.542 710.59L172.48 682.127L120 675.544L122.846 708.1L143.838 708.811ZM153.089 675.011L178.706 678.035L173.013 699.916L188.668 700.45L203.256 715.216V699.916H214.286L212.507 659.534L150.776 659L153.089 675.011Z" fill="#5736AE"/>
</g>
<g clip-path="url(#clip26_226_4051)">
<path fill-rule="evenodd" clip-rule="evenodd" d="M832.719 543.473L813.629 602.317L834.501 610.638L843.138 577.652L837.378 575.783L846.507 546.054L832.719 543.473ZM837.766 611.181L857.672 615.058L867.116 585.947L861.979 584.28L872.021 552.266L862.217 549.602L853.202 580.572L847.135 579.12L837.766 611.181ZM861.101 616.686L878.708 624.463L896.958 563.969L885.833 557.952L876.46 589.494L869.459 587.739L861.101 616.686Z" fill="#5736AE"/>
</g>
<g clip-path="url(#clip27_226_4051)">
<path fill-rule="evenodd" clip-rule="evenodd" d="M997.593 659.394L1004.73 702.861L1031.33 698.229L1028.26 673.448L1041.53 670.552L1047.96 694.598L1064.64 692.129L1047.78 646.283L997.593 659.394ZM1020.19 662.486L1021.54 679.419L1008.03 681.194L1005.56 664.506L1020.19 662.486ZM985.099 655.074L1059.6 637.634L1046.36 631.714L1046.63 615.016L1032.67 614.736L1033.81 626.233L1016.23 618.326L985.099 655.074Z" fill="#5736AE"/>
</g>
<defs>
<clipPath id="clip0_226_4051">
<rect width="61.8886" height="57.8524" fill="white" transform="translate(603.807 63.5068) rotate(15.1721)"/>
</clipPath>
<clipPath id="clip1_226_4051">
<rect width="39.4723" height="64.9383" fill="white" transform="translate(382.763 57.2188) rotate(-9.2374)"/>
</clipPath>
<clipPath id="clip2_226_4051">
<rect width="29" height="55" fill="white" transform="translate(214 197.353) rotate(-57.1122)"/>
</clipPath>
<clipPath id="clip3_226_4051">
<rect width="55" height="55" fill="white" transform="translate(441 591)"/>
</clipPath>
<clipPath id="clip4_226_4051">
<rect width="59.8723" height="67" fill="white" transform="translate(746.128 19)"/>
</clipPath>
<clipPath id="clip5_226_4051">
<rect width="64.3085" height="83.6011" fill="white" transform="translate(1108.98 44.438) rotate(28.6298)"/>
</clipPath>
<clipPath id="clip6_226_4051">
<rect width="71.0987" height="71.0987" fill="white" transform="translate(147.402 407.533) rotate(-13.9416)"/>
</clipPath>
<clipPath id="clip7_226_4051">
<rect width="49.7191" height="57.177" fill="white" transform="translate(96.8633 139.568) rotate(-23.2869)"/>
</clipPath>
<clipPath id="clip8_226_4051">
<rect width="72.3902" height="56" fill="white" transform="translate(489.609 10)"/>
</clipPath>
<clipPath id="clip9_226_4051">
<rect width="43" height="47" fill="white" transform="translate(185.089 303.512) rotate(-122.477)"/>
</clipPath>
<clipPath id="clip10_226_4051">
<rect width="68.8679" height="62.7463" fill="white" transform="translate(638 561.134) rotate(-7.23029)"/>
</clipPath>
<clipPath id="clip11_226_4051">
<rect width="64.7705" height="62.0717" fill="white" transform="translate(229.701 73.5054) rotate(-78.6563)"/>
</clipPath>
<clipPath id="clip12_226_4051">
<rect width="70.2616" height="64.6406" fill="white" transform="translate(1080 260.688) rotate(-12.0662)"/>
</clipPath>
<clipPath id="clip13_226_4051">
<rect width="70.5854" height="64.3111" fill="white" transform="translate(39.415 568.689)"/>
</clipPath>
<clipPath id="clip14_226_4051">
<rect width="70.5854" height="64.3111" fill="white" transform="translate(1155 367)"/>
</clipPath>
<clipPath id="clip15_226_4051">
<rect width="77" height="67.1702" fill="white" transform="translate(7 327.915)"/>
</clipPath>
<clipPath id="clip16_226_4051">
<rect width="77" height="63.3111" fill="white" transform="translate(7 24.8442)"/>
</clipPath>
<clipPath id="clip17_226_4051">
<rect width="62.2727" height="78.2857" fill="white" transform="translate(1331.92 5) rotate(38.6767)"/>
</clipPath>
<clipPath id="clip18_226_4051">
<rect width="79" height="79" fill="white" transform="translate(1184.63 157.227) rotate(-8.44134)"/>
</clipPath>
<clipPath id="clip19_226_4051">
<rect width="75.9" height="66" fill="white" transform="translate(1300.22 375.398) rotate(-1.44023)"/>
</clipPath>
<clipPath id="clip20_226_4051">
<rect width="78.6367" height="72.0837" fill="white" transform="translate(929.757 73.2061) rotate(4.21751)"/>
</clipPath>
<clipPath id="clip21_226_4051">
<rect width="65.8" height="70" fill="white" transform="translate(555 651)"/>
</clipPath>
<clipPath id="clip22_226_4051">
<rect width="72.875" height="66" fill="white" transform="translate(1142 655)"/>
</clipPath>
<clipPath id="clip23_226_4051">
<rect width="71" height="63.1111" fill="white" transform="translate(1117.36 489.9) rotate(14.9715)"/>
</clipPath>
<clipPath id="clip24_226_4051">
<rect width="73.7682" height="53.9767" fill="white" transform="translate(1310.3 558.461) rotate(6.68069)"/>
</clipPath>
<clipPath id="clip25_226_4051">
<rect width="94.2857" height="62.2642" fill="white" transform="translate(120 659)"/>
</clipPath>
<clipPath id="clip26_226_4051">
<rect width="68.7374" height="67.1008" fill="white" transform="translate(833.881 539.893) rotate(17.9743)"/>
</clipPath>
<clipPath id="clip27_226_4051">
<rect width="76.5033" height="82.2411" fill="white" transform="translate(978.857 626.485) rotate(-12.3164)"/>
</clipPath>
</defs>
</svg>
