<svg width="20" height="30" viewBox="0 0 20 30" fill="none" xmlns="http://www.w3.org/2000/svg">
<g clip-path="url(#clip0_30_5391)">
<path d="M6.26903 29.6386C9.72956 27.6932 13.1901 25.7478 16.5727 23.6843C17.2809 23.2168 18.0091 22.6514 18.6393 22.0659C18.8954 21.8121 19.0736 21.4403 19.0559 21.0284C18.8846 19.8705 16.6939 18.6054 15.6517 19.2086C11.5432 21.3276 7.55271 23.3687 3.4442 25.4877C2.87413 25.7793 2.40203 26.0909 1.92993 26.4025C1.3398 26.7921 1.33748 27.302 1.86511 27.7162C2.82241 28.5247 3.81983 29.1372 4.89516 29.8677C5.30708 29.85 5.81698 29.8523 6.26903 29.6386Z" fill="#48E5C2"/>
<path d="M5.58356 16.5348C6.83941 16.3836 7.99728 16.2124 9.27318 15.9632C11.707 15.5429 14.2387 15.1425 16.6725 14.7221C17.4184 14.5686 17.8905 14.257 17.8929 13.7471C18.2739 11.8857 17.5527 10.9215 15.787 11.0703C12.0395 11.4259 8.34986 11.9975 4.66024 12.569C4.03232 12.6446 3.48231 12.8382 2.81427 13.1098C2.59828 13.1676 2.32211 13.5194 2.26194 13.8133C2.29509 15.147 4.20969 16.7639 5.58356 16.5348Z" fill="#48E5C2"/>
<path d="M19.7974 8.93126C20.0134 8.87341 20.3073 8.93358 20.4254 8.85567C20.5634 8.67979 20.5457 8.26786 20.4678 8.14984C20.0782 7.55971 19.6887 6.96958 19.2991 6.37946C17.1531 3.8986 14.1763 2.98291 11.2195 1.96926C8.8305 1.17391 6.51939 0.496596 4.22833 -0.27869C3.83646 -0.358921 3.54256 -0.419093 3.15068 -0.499324C3.07045 -0.107452 2.85214 0.460297 3.10593 0.716405C4.23447 2.68272 5.34295 4.74701 8.08605 5.30862C11.9847 6.20889 16.1017 6.54141 19.7974 8.93126Z" fill="#48E5C2"/>
</g>
<defs>
<clipPath id="clip0_30_5391">
<rect width="19.9" height="29.6" fill="white" transform="translate(0 0.200012)"/>
</clipPath>
</defs>
</svg>
