<svg width="22" height="30" viewBox="0 0 22 30" fill="none" xmlns="http://www.w3.org/2000/svg">
<g clip-path="url(#clip0_30_5029)">
<path d="M3.39989 11.45C3.69989 11.35 3.99989 11.25 4.29989 11.05C4.79989 10.75 5.29989 10.45 5.79989 10.15C8.99989 8.05002 12.0999 5.85002 15.2999 3.85002C16.0999 3.35002 15.9999 2.95002 15.4999 2.35002C14.0999 0.850018 12.6999 0.550018 11.0999 1.65002C7.99989 3.85002 4.89989 6.25002 1.79989 8.75002C0.499887 9.75002 0.599887 10.35 2.19989 11.05C2.49989 11.15 2.99989 11.25 3.39989 11.45Z" fill="#48E5C2"/>
<path d="M14.5 26.55C12.2 24.75 9.89995 22.95 7.49995 21.15C7.19995 20.95 6.89995 20.75 6.49995 20.55C5.49995 20.05 4.09995 20.25 3.19995 20.95C2.69995 21.45 2.69995 21.85 3.19995 22.25C4.59995 23.45 5.99995 24.75 7.39995 25.95C8.49995 26.85 9.59995 27.75 10.7 28.55C11.1 28.85 11.5 28.95 11.9 29.15C13 28.95 13.7 28.45 14.4 27.75C15.1 27.25 15 26.95 14.5 26.55Z" fill="#48E5C2"/>
<path d="M4.9998 13.05C4.7998 13.05 4.4998 13.25 4.2998 13.35C4.3998 13.65 4.4998 14.05 4.6998 14.15C5.5998 14.65 6.4998 15.25 7.4998 15.35C10.6998 15.75 13.8998 15.95 17.0998 16.25C18.3998 16.35 19.6998 16.55 20.8998 16.65C20.9998 16.55 20.9998 16.35 21.0998 16.25C20.1998 14.65 18.7998 13.75 16.9998 13.35C13.0998 12.65 8.9998 12.45 4.9998 13.05Z" fill="#48E5C2"/>
</g>
<defs>
<clipPath id="clip0_30_5029">
<rect width="20.2" height="28.3" fill="white" transform="translate(0.899902 0.850006)"/>
</clipPath>
</defs>
</svg>
