<svg width="428" height="252" viewBox="0 0 428 252" fill="none" xmlns="http://www.w3.org/2000/svg">
<path d="M386.62 59.3185C386.88 56.512 387.625 54.1214 388.855 52.1465C390.154 50.189 391.679 48.5087 393.429 47.1056C395.179 45.7025 396.929 44.4466 398.678 43.338C400.497 42.2467 402.057 41.1641 403.356 40.0901C404.655 39.0161 405.47 37.8208 405.799 36.5042C406.267 34.6333 406.007 33.1694 405.02 32.1125C404.119 31.0037 402.872 30.25 401.278 29.8515C399.546 29.4183 397.917 29.4528 396.393 29.9551C394.937 30.4747 393.361 31.1848 391.663 32.0856L384.128 20.7032C387.42 18.434 391.023 16.8318 394.938 15.8966C398.923 14.9787 402.994 15.0396 407.152 16.0794C410.963 17.0325 414.272 18.5226 417.078 20.5497C419.902 22.5075 421.877 25.0629 423.002 28.216C424.197 31.3863 424.249 35.1543 423.157 39.5199C422.534 42.0145 421.468 44.0673 419.961 45.6783C418.523 47.3067 416.842 48.7271 414.919 49.9396C413.083 51.1002 411.246 52.2608 409.41 53.4213C407.643 54.5992 406.092 55.9417 404.758 57.4488C403.424 58.9559 402.575 60.8788 402.211 63.2175L386.62 59.3185ZM387.657 87.8511C384.677 87.106 382.443 85.4427 380.953 82.8613C379.55 80.228 379.221 77.4215 379.966 74.4418C380.729 71.3929 382.34 69.0716 384.8 67.4779C387.329 65.9016 390.084 65.4861 393.064 66.2312C396.113 66.9937 398.347 68.657 399.768 71.221C401.188 73.7851 401.517 76.5916 400.755 79.6405C400.009 82.6202 398.398 84.9415 395.921 86.6044C393.461 88.198 390.706 88.6136 387.657 87.8511Z" fill="#DBCBEA"/>
<path d="M376.571 207.553C376.643 206.285 376.94 205.196 377.462 204.287C378.016 203.385 378.675 202.603 379.441 201.943C380.206 201.283 380.974 200.69 381.744 200.162C382.545 199.641 383.23 199.129 383.798 198.624C384.365 198.12 384.713 197.568 384.84 196.97C385.02 196.12 384.88 195.465 384.418 195.005C383.995 194.52 383.421 194.201 382.697 194.047C381.91 193.88 381.177 193.922 380.499 194.173C379.852 194.43 379.153 194.775 378.403 195.208L374.827 190.204C376.272 189.129 377.869 188.35 379.617 187.866C381.397 187.388 383.231 187.35 385.12 187.751C386.851 188.119 388.365 188.736 389.662 189.604C390.965 190.44 391.895 191.559 392.453 192.961C393.042 194.369 393.126 196.065 392.705 198.048C392.464 199.182 392.018 200.123 391.365 200.873C390.743 201.629 390.01 202.296 389.163 202.873C388.355 203.425 387.547 203.978 386.738 204.53C385.962 205.089 385.285 205.718 384.709 206.418C384.132 207.118 383.781 207.998 383.655 209.057L376.571 207.553ZM377.498 220.384C376.144 220.097 375.111 219.384 374.399 218.245C373.725 217.082 373.531 215.824 373.819 214.47C374.113 213.085 374.801 212.013 375.883 211.256C376.997 210.506 378.231 210.274 379.584 210.561C380.97 210.856 382.003 211.569 382.684 212.7C383.364 213.832 383.558 215.091 383.264 216.476C382.976 217.83 382.288 218.901 381.199 219.69C380.117 220.447 378.883 220.678 377.498 220.384Z" fill="#DBCBEA"/>
<path d="M71.3423 32.2454C70.8815 31.062 70.6999 29.9484 70.7976 28.9046C70.9267 27.8538 71.2025 26.8693 71.6248 25.9512C72.0472 25.033 72.4992 24.1743 72.9809 23.3748C73.4941 22.5684 73.9042 21.8178 74.2114 21.1231C74.5186 20.4284 74.6058 19.7826 74.4731 19.1856C74.2846 18.3373 73.8848 17.7997 73.2739 17.5728C72.6874 17.3076 72.0329 17.2552 71.3103 17.4158C70.5248 17.5904 69.8755 17.9326 69.3624 18.4423C68.8806 18.945 68.3884 19.5489 67.8858 20.2541L62.555 17.1858C63.4241 15.6079 64.5534 14.2359 65.9427 13.0699C67.3635 11.8968 69.0164 11.1008 70.9015 10.6818C72.6295 10.2977 74.2633 10.2313 75.8028 10.4826C77.3353 10.7025 78.6462 11.3343 79.7354 12.378C80.8561 13.4148 81.6364 14.9228 82.0763 16.9022C82.3277 18.0332 82.312 19.0753 82.0293 20.0283C81.778 20.9744 81.3871 21.8855 80.8565 22.7618C80.3503 23.5996 79.8442 24.4375 79.338 25.2753C78.8633 26.1062 78.509 26.9598 78.2752 27.836C78.0413 28.7122 78.0867 29.6583 78.4114 30.6741L71.3423 32.2454ZM77.5113 43.5348C76.1604 43.8351 74.9246 43.6152 73.8039 42.8752C72.7077 42.0968 72.0095 41.032 71.7092 39.6811C71.402 38.2987 71.5834 37.0384 72.2536 35.9004C72.9553 34.7553 73.9816 34.0326 75.3326 33.7323C76.715 33.4251 77.9508 33.6449 79.04 34.392C80.1292 35.139 80.8274 36.2037 81.1347 37.5861C81.435 38.9371 81.2535 40.1973 80.5903 41.3668C79.92 42.5049 78.8937 43.2275 77.5113 43.5348Z" fill="#DBCBEA"/>
<path d="M28.8846 221.316C27.4203 218.908 26.5933 216.544 26.4036 214.225C26.2799 211.879 26.5022 209.621 27.0706 207.451C27.639 205.282 28.2952 203.23 29.0391 201.297C29.8491 199.336 30.4555 197.538 30.8584 195.901C31.2614 194.264 31.2026 192.819 30.682 191.565C29.9423 189.784 28.861 188.764 27.4383 188.504C26.054 188.151 24.6033 188.289 23.0861 188.919C21.437 189.604 20.1502 190.603 19.2256 191.915C18.367 193.2 17.5246 194.71 16.6985 196.445L3.86308 191.799C5.15309 188.014 7.09105 184.58 9.67697 181.495C12.3289 178.382 15.6337 176.004 19.5917 174.36C23.2197 172.854 26.7646 172.077 30.2262 172.032C33.6604 171.92 36.7693 172.795 39.5529 174.655C42.4024 176.488 44.6903 179.482 46.4163 183.638C47.4026 186.013 47.7709 188.296 47.5212 190.488C47.3374 192.653 46.835 194.795 46.0139 196.915C45.2314 198.942 44.4489 200.968 43.6663 202.995C42.9498 204.994 42.5052 206.996 42.3326 209.002C42.16 211.007 42.6247 213.057 43.7267 215.152L28.8846 221.316ZM46.7274 243.606C43.8909 244.784 41.1052 244.78 38.3703 243.596C35.6739 242.318 33.7367 240.261 32.5586 237.425C31.3531 234.522 31.2629 231.698 32.288 228.952C33.379 226.178 35.3428 224.203 38.1793 223.024C41.0818 221.819 43.8675 221.822 46.5365 223.034C49.2054 224.246 51.1426 226.303 52.3481 229.205C53.5263 232.042 53.6165 234.866 52.6188 237.678C51.5937 240.424 49.6299 242.4 46.7274 243.606Z" fill="#DBCBEA"/>
<path d="M35.3175 52.6942C35.8828 54.9327 36.0412 57.524 38.6192 58.8521C43.139 61.1998 47.5025 63.7077 52.0839 65.9282C53.6111 66.6683 55.36 67.4374 57.2127 66.3709C57.8772 61.2711 56.4617 59.3278 51.7608 57.678C47.569 56.2749 43.5911 54.2683 39.4898 52.5163C38.6318 52.179 37.8971 51.5872 37.0719 51.3443C35.9304 51.1054 35.0841 51.7167 35.3175 52.6942Z" fill="#DBCBEA"/>
<path d="M359.443 26.6958C359.914 26.8905 360.885 26.6976 361.163 26.2819C362.302 24.7579 363.358 23.1784 364.414 21.5988C364.636 21.2663 364.775 20.8782 364.942 20.6287C366.639 16.4706 368.198 12.3401 368.092 7.81916C368.039 6.46007 368.04 5.01785 366.766 4.04551C364.716 2.43428 362.554 1.34988 359.613 1.78992C359.242 10.0822 356.404 17.5671 352.345 24.7176C354.423 26.8281 357.197 25.9163 359.443 26.6958ZM360.971 24.5898C361.027 24.5067 361.082 24.4236 361.082 24.4236C361.082 24.4236 361.027 24.5067 360.971 24.5898Z" fill="#DBCBEA"/>
<path d="M33.0444 121.963C26.9301 122.802 20.7908 123.782 14.2909 124.768C16.776 131.322 17.8965 131.882 23.8646 130.657C28.7262 129.592 33.5948 128.887 38.4314 127.961C39.8413 127.712 41.3654 127.627 42.9145 127.402C40.3252 122.626 38.1093 121.365 33.0444 121.963Z" fill="#DBCBEA"/>
<path d="M416.669 102.257C412.507 103.177 408.408 104.323 404.328 105.365C403.358 105.633 402.434 106.235 400.858 107.05C407.825 110.822 413.795 107.72 419.827 106.684C421.632 106.339 423.536 106.012 424.851 103.098C424.304 102.681 423.476 102.108 422.766 101.448C420.885 101.022 418.492 101.808 416.669 102.257Z" fill="#DBCBEA"/>
<path d="M321.327 37.2005C322.532 36.4855 323.414 35.9039 324.381 35.5036C325.627 34.8793 326.04 33.9975 325.985 32.5831C325.951 31.0979 326.068 29.5813 326.249 28.0846C326.684 23.7163 327.205 19.297 327.576 14.9089C327.691 13.6248 327.656 12.372 327.623 10.8867C324.744 12.0165 323.254 13.8854 322.914 16.808C322.32 22.6021 321.726 28.3962 321.132 34.1903C321.062 35.1003 321.27 36.0185 321.327 37.2005Z" fill="#DBCBEA"/>
<path d="M114.836 39.0273C114.936 40.0273 115.636 41.7273 116.236 41.8273C118.736 42.4273 121.236 43.8273 123.436 42.2273C123.736 34.2273 125.736 26.8273 126.836 18.9273C126.136 18.6273 125.536 18.4273 124.936 18.2273C124.436 18.1273 123.936 17.9273 123.436 18.0273C119.236 18.8273 117.636 17.7273 116.736 23.4273C116.136 26.9273 115.436 30.4273 114.836 33.9273C114.736 35.7273 114.636 37.4273 114.836 39.0273Z" fill="#DBCBEA"/>
</svg>
