<svg width="303" height="341" viewBox="0 0 303 341" fill="none" xmlns="http://www.w3.org/2000/svg">
<path d="M36.251 101.802H52.078C68.327 101.802 79.5114 109.407 79.5114 128.419C79.5114 147.431 68.327 155.247 52.7111 155.247H36.251V101.802ZM51.0228 144.051C58.8308 144.051 64.7396 140.882 64.7396 128.419C64.7396 115.956 58.6198 113.209 51.0228 113.209H50.3898V144.051H51.0228Z" fill="#FFFD67"/>
<path d="M85.6311 134.756C85.6311 121.025 95.5494 113.209 106.101 113.209C116.652 113.209 126.57 121.025 126.57 134.756C126.57 148.487 116.652 156.303 106.101 156.303C95.5494 156.303 85.6311 148.487 85.6311 134.756ZM112.009 134.756C112.009 128.419 110.321 124.617 106.101 124.617C101.88 124.617 100.192 128.63 100.192 134.756C100.192 140.882 101.88 144.896 106.101 144.896C110.321 144.896 112.009 141.093 112.009 134.756Z" fill="#FFFD67"/>
<path d="M133.112 140.882V98H147.251V141.305C147.251 144.051 148.517 144.896 149.572 144.896C149.994 144.896 150.416 144.896 151.049 144.685L152.738 155.035C151.26 155.669 148.939 156.092 145.774 156.092C136.277 156.303 133.112 149.966 133.112 140.882Z" fill="#FFFD67"/>
<path d="M157.591 140.882V98H171.73V141.305C171.73 144.051 172.996 144.896 174.051 144.896C174.473 144.896 174.895 144.896 175.529 144.685L177.217 155.035C175.74 155.669 173.418 156.092 170.253 156.092C160.757 156.303 157.591 149.966 157.591 140.882Z" fill="#FFFD67"/>
<path d="M113.835 61.2585L114.989 55.5198H131.725L130.795 61.2585H129.16V57.1549H124.543L122.684 67.0614C122.171 69.8186 121.69 72.5757 121.241 75.3329L124.479 75.7176L124.222 77H115.085L115.342 75.7176L118.452 75.3649L120.311 65.4584C120.568 64.0691 120.813 62.6799 121.049 61.2906C121.305 59.9013 121.54 58.5228 121.754 57.1549H116.945L115.47 61.2585H113.835ZM133.883 77.2565L133.563 77L136.673 61.7074C136.865 60.767 137.047 59.8265 137.218 58.8861C137.41 57.9243 137.581 56.9625 137.73 56.0007L134.685 55.8083L134.813 54.8786L140.359 53.2756L140.68 53.5321L138.372 64.9454C139.398 63.9409 140.509 63.0966 141.706 62.4127C142.924 61.7288 144.014 61.3868 144.976 61.3868C146.365 61.3868 147.06 62.1242 147.06 63.5989C147.06 64.1119 146.996 64.6355 146.868 65.1699C146.761 65.6828 146.643 66.2065 146.515 66.7408L145.072 72.6719C144.965 73.1207 144.869 73.5055 144.784 73.8261C144.698 74.1253 144.655 74.3604 144.655 74.5314C144.655 74.9802 144.869 75.2046 145.297 75.2046C145.681 75.2046 146.152 75.0016 146.707 74.5955C147.284 74.1894 147.861 73.623 148.439 72.8963L149.208 73.5055C148.802 74.1253 148.3 74.7451 147.701 75.3649C147.124 75.9634 146.494 76.455 145.81 76.8397C145.126 77.2244 144.42 77.4168 143.694 77.4168C143.181 77.4168 142.775 77.2885 142.475 77.0321C142.198 76.7756 142.059 76.4443 142.059 76.0382C142.059 75.6749 142.101 75.3222 142.187 74.9802C142.294 74.6169 142.422 74.1039 142.572 73.4413L143.95 67.7988C144.078 67.2431 144.196 66.7194 144.303 66.2278C144.41 65.7363 144.463 65.3302 144.463 65.0096C144.463 64.4539 144.367 64.0691 144.175 63.8554C143.982 63.6417 143.704 63.5348 143.341 63.5348C142.764 63.5348 142.037 63.7699 141.161 64.2401C140.285 64.689 139.259 65.3836 138.083 66.324L137.25 70.2674C137.036 71.3788 136.822 72.5009 136.608 73.6337C136.395 74.7451 136.202 75.8672 136.031 77L133.883 77.2565ZM160.331 62.7654C159.839 62.7654 159.294 62.9577 158.696 63.3424C158.119 63.7272 157.553 64.2615 156.997 64.9454C156.441 65.6294 155.971 66.4202 155.586 67.3179C155.223 68.1942 154.998 69.1346 154.913 70.1392C156.687 69.6262 158.098 69.0598 159.145 68.44C160.213 67.7988 160.972 67.1576 161.421 66.5164C161.891 65.8538 162.126 65.234 162.126 64.6569C162.126 64.0584 161.955 63.5989 161.613 63.2783C161.293 62.9363 160.865 62.7654 160.331 62.7654ZM157.51 77.4168C156.099 77.4168 154.934 76.9359 154.015 75.9741C153.118 75.0123 152.669 73.5055 152.669 71.4536C152.669 70.1712 152.893 68.9316 153.342 67.7347C153.791 66.5164 154.4 65.437 155.169 64.4966C155.939 63.5348 156.826 62.776 157.83 62.2203C158.856 61.6646 159.925 61.3868 161.036 61.3868C162.084 61.3868 162.874 61.6433 163.409 62.1562C163.965 62.6692 164.242 63.3959 164.242 64.3363C164.242 65.0202 163.975 65.779 163.441 66.6126C162.907 67.4247 161.955 68.2476 160.588 69.0812C159.241 69.9147 157.349 70.6842 154.913 71.3895C154.977 72.7574 155.298 73.7406 155.875 74.339C156.452 74.9161 157.232 75.2046 158.215 75.2046C159.22 75.2046 160.085 74.9482 160.812 74.4352C161.539 73.9222 162.116 73.3986 162.543 72.8643L163.281 73.4413C162.618 74.5314 161.784 75.4718 160.78 76.2626C159.775 77.0321 158.685 77.4168 157.51 77.4168Z" fill="#FFFD67"/>
<path d="M180.382 143.628C180.382 134.967 186.924 130.32 202.751 128.63C202.329 125.673 200.641 124.405 197.053 124.405C194.099 124.405 190.933 125.462 186.713 127.785L181.859 118.491C187.557 115.111 193.466 113.209 199.797 113.209C210.559 113.209 216.89 118.913 216.89 132.433V155.247H205.283L204.228 151.233H203.806C200.43 154.19 196.842 156.092 192.411 156.092C185.025 156.303 180.382 150.388 180.382 143.628ZM202.751 142.572V136.869C195.998 137.925 193.888 140.037 193.888 142.361C193.888 144.262 195.154 145.318 197.686 145.318C200.008 145.53 201.274 144.262 202.751 142.572Z" fill="#FFFD67"/>
<path d="M226.175 114.054H237.782L238.837 121.237H239.259C242.213 115.533 246.856 113.209 250.865 113.209C253.397 113.209 254.875 113.632 255.93 114.054L253.609 126.306C252.131 125.884 250.865 125.673 248.966 125.673C246.012 125.673 242.424 127.574 240.314 132.644V155.458H226.175V114.054Z" fill="#FFFD67"/>
<path d="M35.1958 178.231H49.3346V198.088H65.3726V178.231H79.5114V231.676H65.3726V210.551H49.3346V231.887H35.1958V178.231Z" fill="#FFFD67"/>
<path d="M87.9524 211.185C87.9524 197.454 97.8706 189.638 108.422 189.638C118.973 189.638 128.892 197.454 128.892 211.185C128.892 224.916 118.973 232.732 108.422 232.732C97.8706 232.732 87.9524 224.916 87.9524 211.185ZM114.331 211.185C114.331 204.848 112.643 201.045 108.422 201.045C104.201 201.045 102.513 205.059 102.513 211.185C102.513 217.311 104.201 221.325 108.422 221.325C112.643 221.325 114.331 217.522 114.331 211.185Z" fill="#FFFD67"/>
<path d="M135.434 217.311V174.429H149.572V217.734C149.572 220.48 150.839 221.325 151.894 221.325C152.316 221.325 152.738 221.325 153.371 221.113L155.059 231.464C153.582 232.098 151.261 232.52 148.095 232.52C138.599 232.732 135.434 226.606 135.434 217.311Z" fill="#FFFD67"/>
<path d="M159.913 217.311V174.429H174.051V217.734C174.051 220.48 175.318 221.325 176.373 221.325C176.795 221.325 177.217 221.325 177.85 221.113L179.538 231.464C178.061 232.098 175.74 232.52 172.574 232.52C163.078 232.732 159.913 226.606 159.913 217.311Z" fill="#FFFD67"/>
<path d="M182.281 211.185C182.281 197.877 191.988 189.638 202.118 189.638C214.357 189.638 220.055 198.511 220.055 209.495C220.055 212.03 219.633 214.354 219.422 215.41H195.998C197.264 220.268 200.852 221.958 205.494 221.958C208.238 221.958 210.981 221.113 213.935 219.424L218.578 227.873C214.146 231.042 208.238 232.732 203.595 232.732C191.566 232.732 182.281 224.916 182.281 211.185ZM208.027 206.326C208.027 203.158 206.76 200.412 202.329 200.412C199.163 200.412 196.631 202.313 195.787 206.326H208.027Z" fill="#FFFD67"/>
<path d="M227.652 190.695H239.258L240.313 197.877H240.736C243.69 192.173 248.332 189.85 252.342 189.85C254.874 189.85 256.351 190.272 257.407 190.695L255.085 202.947C253.608 202.524 252.342 202.313 250.443 202.313C247.488 202.313 243.901 204.214 241.791 209.284V232.098H227.652V190.695Z" fill="#FFFD67"/>
<path d="M14.4958 12C12.9958 10.3 10.9959 9.80003 8.89585 10.3C7.59585 10.6 6.39585 11.3 4.99585 11.9C9.09585 16.8 13.0959 21.5 17.0959 26.3C19.4959 29.1 22.2958 29.7 25.9958 27.9C23.9958 24.7 22.2959 21.7 20.3959 18.9C18.5959 16.5 16.4958 14.3 14.4958 12Z" fill="#7F5BDC"/>
<path d="M0.180517 129.923C1.16682 130.917 1.94538 131.632 2.56858 132.472C3.47719 133.53 4.43284 133.716 5.79139 133.319C7.22401 132.925 8.72346 132.67 10.2193 132.482C14.5623 131.842 18.9757 131.273 23.3223 130.566C24.5959 130.366 25.8027 130.028 27.2354 129.634C25.4398 127.117 23.2648 126.125 20.3472 126.506C14.5825 127.338 8.81774 128.17 3.05299 129.002C2.15332 129.155 1.31325 129.58 0.180517 129.923Z" fill="#7F5BDC"/>
<path d="M254.78 28.7043C256.179 28.6383 257.231 28.5389 258.273 28.6393C259.667 28.6733 260.445 28.0884 261.06 26.8136C261.728 25.4864 262.543 24.2022 263.405 22.9655C265.84 19.3125 268.374 15.6548 270.761 11.9542C271.466 10.8745 272.023 9.75187 272.691 8.42471C269.619 8.07117 267.426 9.02174 265.754 11.4428C262.509 16.2801 259.265 21.1174 256.021 25.9548C255.532 26.7253 255.285 27.634 254.78 28.7043Z" fill="#7F5BDC"/>
<path d="M134.311 29.0273C134.411 30.0273 135.111 31.7273 135.711 31.8273C138.211 32.4273 140.711 33.8273 142.911 32.2273C143.211 24.2273 145.211 16.8273 146.311 8.92725C145.611 8.62725 145.011 8.42725 144.411 8.22725C143.911 8.12725 143.411 7.92725 142.911 8.02725C138.711 8.82725 137.111 7.72725 136.211 13.4273C135.611 16.9273 134.911 20.4273 134.311 23.9273C134.211 25.7273 134.111 27.4273 134.311 29.0273Z" fill="#7F5BDC"/>
<path d="M268.196 223.32C273.796 227.82 279.496 231.32 285.996 233.02C288.196 233.62 290.896 233.02 292.996 230.92C292.096 230.32 291.596 229.82 290.896 229.52C286.696 227.12 282.496 224.82 278.396 222.32C275.196 220.42 272.196 220.42 268.196 223.32Z" fill="#7F5BDC"/>
<path d="M271.803 43.9359C268.568 46.7118 265.496 49.6575 262.391 52.5021C261.663 53.1972 261.132 54.1631 260.128 55.6261C268.05 55.6618 271.848 50.109 276.676 46.3474C278.105 45.1919 279.63 44.004 279.412 40.8143C278.734 40.7049 277.734 40.5912 276.795 40.3442C274.937 40.8568 273.198 42.6793 271.803 43.9359Z" fill="#7F5BDC"/>
<path d="M23.5958 252.151C20.7958 257.651 18.0958 263.251 15.1958 269.151C21.9958 270.851 23.0958 270.251 25.4958 264.651C27.3958 260.051 29.5958 255.651 31.5958 251.151C32.1958 249.851 32.9958 248.551 33.6958 247.151C28.2958 246.551 25.9958 247.651 23.5958 252.151Z" fill="#7F5BDC"/>
<path d="M187.496 252.399C186.996 252.499 186.296 253.199 186.296 253.699C186.196 255.599 186.196 257.499 186.196 259.399C186.196 259.799 186.296 260.199 186.296 260.499C187.196 264.899 188.196 269.199 190.796 272.899C191.596 273.999 192.396 275.199 193.996 275.299C196.596 275.499 198.996 275.199 201.196 273.199C196.896 266.099 195.096 258.299 194.496 250.099C191.596 249.499 189.796 251.799 187.496 252.399ZM187.396 254.999C187.396 255.099 187.396 255.199 187.396 255.199C187.396 255.199 187.396 255.099 187.396 254.999Z" fill="#7F5BDC"/>
<path d="M76.4008 4.9059C72.9008 1.6059 63.8008 8.4059 58.7008 8.1059C58.0008 8.0059 57.3008 8.0059 56.7008 7.8059C56.7008 7.7059 56.8008 7.5059 56.9008 7.4059C56.9008 7.3059 57.1008 6.9059 57.1008 7.0059C56.2008 6.4059 55.4008 6.8059 54.9008 7.6059C54.9008 7.6059 54.9008 7.7059 54.8008 7.7059C54.8008 7.7059 54.8008 7.8059 54.7008 7.8059C54.0008 9.3059 54.2008 11.1059 54.3008 12.8059C54.8008 19.4059 55.3008 26.0059 55.4008 32.6059C55.9008 36.3059 54.4008 40.7059 56.0008 44.1059C56.0008 44.2059 56.0008 44.3059 56.0008 44.5059C56.1008 44.6059 56.2008 44.7059 56.3008 44.8059C56.7008 45.1059 57.1008 45.3059 57.6008 45.4059C59.6008 45.8059 61.6008 45.0059 63.5008 44.7059C65.3008 44.3059 67.0008 43.9059 68.8008 43.5059C68.7008 43.5059 68.7008 43.5059 68.6008 43.5059C69.0008 43.5059 69.4008 43.4059 69.8008 43.3059C69.7008 43.8059 69.7008 44.2059 69.8008 44.4059C69.1008 48.9059 67.9008 53.4059 66.5008 57.7059C66.1008 60.3059 62.2008 66.0059 66.5008 66.6059C71.1008 66.0059 75.8008 64.7059 80.1008 62.9059C80.2008 63.3059 80.2008 63.7059 80.3008 64.1059C80.3008 64.0059 80.3008 63.9059 80.2008 63.9059C81.7008 70.4059 82.3008 78.8059 87.9008 83.1059C89.2008 84.1059 89.4008 84.5059 90.1008 81.8059C90.7008 77.3059 90.6008 73.6059 91.3008 70.6059C91.9008 64.4059 92.5008 58.2059 93.6008 52.1059C96.3008 38.3059 98.4008 35.1059 83.5008 42.7059C86.5008 26.3059 97.6008 14.2059 72.7008 26.3059C72.8008 25.5059 72.9008 24.7059 73.0008 23.9059C73.0008 24.0059 73.0008 24.1059 72.9008 24.1059C73.9008 18.4059 75.7008 12.8059 76.8008 7.1059C77.1008 7.0059 77.2008 6.7059 77.1008 6.2059L76.4008 4.9059ZM82.5008 62.1059C82.6008 62.1059 82.6008 62.0059 82.7008 62.0059C84.8008 60.5059 87.1008 57.2059 82.8008 57.5059C77.7008 59.3059 72.7008 61.6059 67.3008 62.4059C67.7008 61.6059 71.4008 48.0059 71.9008 42.6059C75.3008 41.1059 74.8008 38.4059 68.7008 40.4059C67.1008 41.3059 59.5008 42.0059 56.9008 43.3059C58.4008 38.3059 57.1008 32.5059 57.2008 27.4059C56.5008 22.2059 57.0008 16.6059 56.1008 11.4059C56.9008 11.8059 58.1008 12.0059 59.8008 11.8059C61.2008 12.0059 70.1008 11.4059 74.6008 9.3059C73.1008 14.4059 72.0008 22.1059 71.3008 23.8059C71.3008 25.8059 69.3008 29.4059 71.7008 30.5059C76.4008 29.6059 80.6008 26.7059 85.4008 26.0059C83.7008 32.4059 81.5008 38.7059 80.2008 45.3059C77.1008 48.0059 81.0008 55.3059 82.5008 48.6059C83.4008 48.0059 84.3008 47.5059 85.2008 47.1059C85.9008 46.8059 86.6008 46.4059 87.3008 46.1059C88.9008 45.4059 90.6008 44.7059 92.3008 44.0059C92.0008 45.5059 91.7008 46.9059 91.4008 48.4059V48.3059C91.4008 48.5059 91.3008 48.7059 91.3008 48.8059C91.3008 48.7059 91.3008 48.6059 91.4008 48.6059C90.6008 53.9059 85.7008 72.0059 88.4008 79.0059" fill="#7F5BDC"/>
<path d="M141.96 281.549C143.867 280.248 146.245 279.207 146.605 276.329C147.253 271.278 148.105 266.317 148.613 261.252C148.782 259.563 148.902 257.656 147.263 256.284C142.246 257.416 140.909 259.414 140.978 264.395C141.104 268.814 140.589 273.239 140.356 277.693C140.335 278.615 140.032 279.508 140.089 280.367C140.257 281.521 141.122 282.105 141.96 281.549Z" fill="#7F5BDC"/>
<path d="M162.422 25.0058C164.539 24.0862 167.071 23.5111 167.965 20.7524C169.552 15.9127 171.321 11.2012 172.772 6.32119C173.256 4.69452 173.732 2.84436 172.381 1.18831C167.24 1.35665 165.551 3.06754 164.683 7.97323C163.976 12.3367 162.638 16.5865 161.572 20.917C161.378 21.8183 160.912 22.6389 160.806 23.4926C160.755 24.6576 161.495 25.3941 162.422 25.0058Z" fill="#7F5BDC"/>
<path d="M292.426 109.264C292.638 109.003 292.846 108.559 292.689 108.125C291.599 106.983 284.355 106.66 282.425 106.93C284.399 101.36 290.704 99.2591 293.576 94.4699C295.888 92.0343 286.3 91.5164 284.79 91.0806C286.466 88.0767 288.773 85.4585 291.159 83.0575C291.081 82.8403 291.041 82.7316 290.962 82.5144C291.076 82.6577 291.081 82.8403 291.159 83.0575C291.076 82.6577 290.849 82.3712 290.622 82.0847C290.662 82.1933 290.775 82.3366 290.814 82.4452C290.775 82.3366 290.662 82.1933 290.622 82.0847C287.895 79.8168 284.017 79.6253 280.736 78.5412C276.364 83.2598 272.701 88.5811 269.67 94.288C268.572 97.021 276.192 96.3476 277.855 97.0352C274.421 101.291 271.361 105.902 269.081 110.968C268.804 111.56 268.527 112.152 268.25 112.744C270.486 112.978 272.677 112.921 274.917 113.338C270.994 122.686 268.546 132.544 266.098 142.402C274.016 130.684 282.117 118.961 292.426 109.264Z" fill="#7F5BDC"/>
<path fill-rule="evenodd" clip-rule="evenodd" d="M102.571 257.108L66.609 250.82L49.2295 334.076L98.3298 338.222L102.571 257.108ZM96.2187 262.233L95.0405 285.878C91.9238 282.369 87.156 279.662 81.6079 278.903C76.3961 278.19 71.2907 279.205 67.5374 281.603L72.9417 258.365L96.2187 262.233ZM94.5405 294.544L94.3709 298.289L92.5216 298.036C92.1465 299.526 91.6264 300.825 90.5788 302.223L84.8627 301.442C86.7738 299.99 87.7984 298.76 88.0053 297.247C88.0972 296.575 88.0211 295.879 87.5857 295.306C87.1503 294.733 86.5238 294.304 85.8513 294.212C85.1788 294.12 84.6514 294.22 84.2462 294.678C83.6959 294.945 83.0536 295.885 82.1971 297.138C81.3407 298.391 80.7214 299.163 80.1021 299.934C79.5058 300.538 78.5732 301.095 77.4955 301.462C76.4178 301.828 75.3861 301.858 74.2092 301.697C72.3598 301.445 70.7476 300.71 69.3954 299.326C67.8981 297.752 67.1193 295.932 66.7457 293.655L64.7282 293.379L65.5703 289.726L67.2515 289.956C67.4584 288.443 68.1927 286.831 69.4773 284.951L75.3616 285.756C73.2593 287.352 71.9977 289.064 71.7678 290.745C71.6298 291.754 71.8511 292.64 72.2865 293.214C72.8671 293.978 73.6617 294.429 74.5023 294.544C75.3429 294.659 76.0614 294.415 76.6347 293.98C77.2081 293.544 77.8504 292.604 78.6838 291.52C79.7543 289.953 80.7788 288.723 82.0707 288.044C83.3625 287.364 84.7764 287.043 86.6258 287.296C88.307 287.526 89.7511 288.238 90.79 289.407C91.8289 290.577 92.6308 292.228 93.0504 294.169L94.5635 294.376L94.5405 294.544ZM94.0318 305.778L92.7315 329.064L57.0579 326.926L62.8602 302.029C65.862 306.379 71.0882 309.491 77.4768 310.365C83.8655 311.239 89.9495 309.33 94.0318 305.778Z" fill="#7F5BDC"/>
<path fill-rule="evenodd" clip-rule="evenodd" d="M218.868 70.3957L221.232 71.0291C221.232 71.0291 224.509 72.0339 225.719 68.938L244.339 18.8276C244.339 18.8276 245.975 15.0859 241.121 14.292C240.38 14.2201 239.048 13.99 237.48 13.6965L218.868 70.3957ZM205.031 9.05501C205.031 9.05501 201.454 8.2232 200.4 12.6276C198.705 19.9 190.368 58.5791 190.368 58.5791C190.368 58.5791 189.063 62.0296 193.672 63.2646C196.154 63.9296 204.277 66.2327 210.981 68.1559L227.709 12.345C217.347 10.8352 205.031 9.05501 205.031 9.05501ZM221.698 16.8144L213.05 45.7834L209.74 44.8968L217.876 16.4236L221.698 16.8144ZM215.827 16.5079L209.861 35.9359L206.907 35.1443L212.391 16.0939L215.827 16.5079Z" fill="#7F5BDC"/>
<path fill-rule="evenodd" clip-rule="evenodd" d="M238.378 266.042L238.584 269.966L246.809 271.674L247.886 266.485L238.378 266.042ZM238.863 272.067L239.23 278.169L245.3 279.429L246.5 273.653L238.863 272.067ZM239.39 280.347L239.761 285.939L243.776 286.773L244.873 281.486L239.39 280.347ZM245.832 287.2L251.315 288.338L253.098 283.194L246.93 281.913L245.832 287.2ZM253.819 281.198L255.704 275.564L248.556 274.08L247.357 279.856L253.819 281.198ZM256.424 273.569L258.59 267.074L250.102 266.638L248.963 272.121L256.404 273.667L256.424 273.569ZM253.371 288.765L257.091 289.538L260.05 284.637L255.056 283.6L253.371 288.765ZM261.26 282.744L264.516 277.394L257.76 275.991L255.875 281.625L261.26 282.744ZM265.726 275.5L270.53 267.612L260.826 267.129L258.481 273.996L265.726 275.5ZM232.671 297.948C232.265 299.907 233.526 301.701 235.386 302.087C237.247 302.473 239.139 301.232 239.525 299.372C239.911 297.511 238.67 295.62 236.81 295.233C234.872 294.729 233.078 295.99 232.671 297.948ZM247.554 301.039C247.147 302.997 248.409 304.791 250.269 305.178C252.129 305.564 254.021 304.323 254.408 302.462C254.794 300.602 253.553 298.71 251.692 298.324C249.852 297.84 247.96 299.081 247.554 301.039ZM234.632 258.013L226.506 256.325L224.166 259.721L231.412 261.225L233.993 291.584L257.002 296.362L258.065 293.213L236.23 288.678L234.632 258.013Z" fill="#7F5BDC"/>
</svg>
