<svg width="303" height="341" viewBox="0 0 840 607" fill="none" xmlns="http://www.w3.org/2000/svg">
<path d="M124.762 420L250.738 60.625H308.844L433.844 420H373.297L347.418 345.293H212.164L185.797 420H124.762ZM225.836 305.742H333.258L280.035 150.469L225.836 305.742Z" fill="#FFA400"/>
<path d="M124.762 420L120.043 418.346L117.711 425H124.762V420ZM250.738 60.625V55.625H247.193L246.02 58.971L250.738 60.625ZM308.844 60.625L313.566 58.9824L312.398 55.625H308.844V60.625ZM433.844 420V425H440.877L438.566 418.357L433.844 420ZM373.297 420L368.572 421.637L369.737 425H373.297V420ZM347.418 345.293L352.143 343.656L350.977 340.293H347.418V345.293ZM212.164 345.293V340.293H208.626L207.449 343.629L212.164 345.293ZM185.797 420V425H189.334L190.512 421.664L185.797 420ZM225.836 305.742L221.115 304.094L218.795 310.742H225.836V305.742ZM333.258 305.742V310.742H340.257L337.988 304.121L333.258 305.742ZM280.035 150.469L284.765 148.848L280.078 135.174L275.314 148.821L280.035 150.469ZM129.48 421.654L255.457 62.279L246.02 58.971L120.043 418.346L129.48 421.654ZM250.738 65.625H308.844V55.625H250.738V65.625ZM304.121 62.2676L429.121 421.643L438.566 418.357L313.566 58.9824L304.121 62.2676ZM433.844 415H373.297V425H433.844V415ZM378.021 418.363L352.143 343.656L342.693 346.93L368.572 421.637L378.021 418.363ZM347.418 340.293H212.164V350.293H347.418V340.293ZM207.449 343.629L181.082 418.336L190.512 421.664L216.879 346.957L207.449 343.629ZM185.797 415H124.762V425H185.797V415ZM225.836 310.742H333.258V300.742H225.836V310.742ZM337.988 304.121L284.765 148.848L275.305 152.09L328.528 307.363L337.988 304.121ZM275.314 148.821L221.115 304.094L230.557 307.39L284.756 152.117L275.314 148.821Z" fill="black"/>
<path d="M527 271.5C527 407.252 415.013 518 276 518C136.988 518 25 407.252 25 271.5C25 135.748 136.988 25 276 25C415.013 25 527 135.748 527 271.5Z" stroke="#FFA400" stroke-width="50"/>
<path d="M749.047 145.473C741.234 136.033 732.283 129.197 722.191 124.965C712.1 120.733 701.684 118.617 690.941 118.617H688.988V70.2773H689.477C709.008 70.2773 727.237 73.5326 744.164 80.043C761.091 86.5534 776.228 96.319 789.574 109.34L749.047 145.473ZM539.574 254.359C539.574 226.365 542.829 201.625 549.34 180.141C555.85 158.331 564.802 139.939 576.195 124.965C587.589 109.665 601.26 97.6211 617.211 88.832C633.161 80.043 650.414 74.5091 668.969 72.2305V121.059C659.203 123.663 650.089 128.057 641.625 134.242C633.487 140.427 626.163 149.053 619.652 160.121C613.467 170.863 608.585 184.047 605.004 199.672C601.423 214.971 599.47 233.201 599.145 254.359C599.47 275.518 601.423 294.073 605.004 310.023C608.585 325.974 613.467 339.809 619.652 351.527C626.163 362.921 633.487 372.035 641.625 378.871C650.089 385.707 659.203 390.427 668.969 393.031V437.465C650.414 435.186 633.161 429.652 617.211 420.863C601.26 411.749 587.589 399.542 576.195 384.242C564.802 368.943 555.85 350.551 549.34 329.066C542.829 307.257 539.574 282.354 539.574 254.359ZM808.129 250.453V389.613C800.642 399.053 792.178 406.866 782.738 413.051C773.624 418.91 763.858 423.793 753.441 427.699C743.35 431.605 732.771 434.372 721.703 436C710.961 437.628 700.219 438.441 689.477 438.441H688.988V395.473C692.895 395.473 697.615 395.31 703.148 394.984C709.008 394.333 714.867 393.52 720.727 392.543C726.911 391.241 732.608 389.613 737.816 387.66C743.35 385.707 747.419 382.94 750.023 379.359V290.492H688.988V250.453H808.129Z" fill="black"/>
<path d="M749.047 145.473L745.195 148.66L748.502 152.657L752.374 149.205L749.047 145.473ZM688.988 118.617H683.988V123.617H688.988V118.617ZM688.988 70.2773V65.2773H683.988V70.2773H688.988ZM789.574 109.34L792.902 113.072L796.903 109.504L793.066 105.761L789.574 109.34ZM549.34 180.141L554.125 181.591L554.128 181.581L554.131 181.571L549.34 180.141ZM576.195 124.965L580.174 127.992L580.19 127.972L580.206 127.951L576.195 124.965ZM617.211 88.832L614.798 84.4528L617.211 88.832ZM668.969 72.2305H673.969V66.5789L668.359 67.2677L668.969 72.2305ZM668.969 121.059L670.257 125.89L673.969 124.9V121.059H668.969ZM641.625 134.242L638.675 130.205L638.637 130.233L638.6 130.261L641.625 134.242ZM619.652 160.121L615.343 157.586L615.331 157.606L615.319 157.626L619.652 160.121ZM605.004 199.672L609.872 200.811L609.875 200.8L609.878 200.789L605.004 199.672ZM599.145 254.359L594.145 254.282L594.144 254.359L594.145 254.436L599.145 254.359ZM605.004 310.023L600.125 311.119L605.004 310.023ZM619.652 351.527L615.23 353.861L615.27 353.935L615.311 354.008L619.652 351.527ZM641.625 378.871L638.409 382.7L638.446 382.731L638.483 382.761L641.625 378.871ZM668.969 393.031H673.969V389.19L670.257 388.2L668.969 393.031ZM668.969 437.465L668.359 442.428L673.969 443.116V437.465H668.969ZM617.211 420.863L614.73 425.204L614.764 425.224L614.798 425.242L617.211 420.863ZM549.34 329.066L544.549 330.497L544.552 330.507L544.555 330.516L549.34 329.066ZM808.129 250.453H813.129V245.453H808.129V250.453ZM808.129 389.613L812.046 392.72L813.129 391.355V389.613H808.129ZM782.738 413.051L785.442 417.257L785.46 417.245L785.478 417.233L782.738 413.051ZM753.441 427.699L751.686 423.018L751.661 423.027L751.636 423.036L753.441 427.699ZM721.703 436L720.976 431.053L720.965 431.055L720.954 431.056L721.703 436ZM688.988 438.441H683.988V443.441H688.988V438.441ZM688.988 395.473V390.473H683.988V395.473H688.988ZM703.148 394.984L703.442 399.976L703.572 399.968L703.701 399.954L703.148 394.984ZM720.727 392.543L721.549 397.475L721.653 397.458L721.757 397.436L720.727 392.543ZM737.816 387.66L736.152 382.945L736.106 382.961L736.061 382.979L737.816 387.66ZM750.023 379.359L754.067 382.3L755.023 380.985V379.359H750.023ZM750.023 290.492H755.023V285.492H750.023V290.492ZM688.988 290.492H683.988V295.492H688.988V290.492ZM688.988 250.453V245.453H683.988V250.453H688.988ZM752.899 142.285C744.634 132.298 735.047 124.934 724.125 120.354L720.258 129.576C729.518 133.459 737.835 139.767 745.195 148.66L752.899 142.285ZM724.125 120.354C713.433 115.87 702.36 113.617 690.941 113.617V123.617C701.007 123.617 710.767 125.596 720.258 129.576L724.125 120.354ZM690.941 113.617H688.988V123.617H690.941V113.617ZM693.988 118.617V70.2773H683.988V118.617H693.988ZM688.988 75.2773H689.477V65.2773H688.988V75.2773ZM689.477 75.2773C708.442 75.2773 726.058 78.436 742.369 84.7097L745.959 75.3762C728.416 68.6291 709.574 65.2773 689.477 65.2773V75.2773ZM742.369 84.7097C758.645 90.9695 773.208 100.358 786.083 112.919L793.066 105.761C779.248 92.2797 763.538 82.1373 745.959 75.3762L742.369 84.7097ZM786.247 105.608L745.719 141.741L752.374 149.205L792.902 113.072L786.247 105.608ZM544.574 254.359C544.574 226.74 547.787 202.506 554.125 181.591L544.555 178.691C537.872 200.744 534.574 225.989 534.574 254.359H544.574ZM554.131 181.571C560.504 160.22 569.213 142.398 580.174 127.992L572.216 121.937C560.391 137.479 551.196 156.441 544.549 178.71L554.131 181.571ZM580.206 127.951C591.193 113.197 604.329 101.639 619.624 93.2112L614.798 84.4528C598.192 93.6031 583.984 106.134 572.185 121.979L580.206 127.951ZM619.624 93.2112C635.001 84.7381 651.639 79.3962 669.578 77.1932L668.359 67.2677C649.189 69.622 631.322 75.3478 614.798 84.4528L619.624 93.2112ZM663.969 72.2305V121.059H673.969V72.2305H663.969ZM667.68 116.227C657.294 118.997 647.62 123.669 638.675 130.205L644.575 138.279C652.558 132.446 661.112 128.328 670.257 125.89L667.68 116.227ZM638.6 130.261C629.829 136.927 622.102 146.096 615.343 157.586L623.962 162.656C630.224 152.011 637.145 143.927 644.65 138.223L638.6 130.261ZM615.319 157.626C608.827 168.903 603.791 182.58 600.13 198.555L609.878 200.789C613.378 185.514 618.108 172.824 623.985 162.616L615.319 157.626ZM600.135 198.532C596.451 214.277 594.474 232.88 594.145 254.282L604.144 254.436C604.466 233.521 606.396 215.666 609.872 200.811L600.135 198.532ZM594.145 254.436C594.474 275.843 596.451 294.753 600.125 311.119L609.882 308.928C606.395 293.393 604.466 275.193 604.144 254.282L594.145 254.436ZM600.125 311.119C603.781 327.404 608.798 341.673 615.23 353.861L624.074 349.194C618.137 337.944 613.388 324.544 609.882 308.928L600.125 311.119ZM615.311 354.008C622.048 365.798 629.727 375.407 638.409 382.7L644.841 375.043C637.247 368.663 630.278 360.044 623.994 349.047L615.311 354.008ZM638.483 382.761C647.45 390.003 657.187 395.064 667.68 397.862L670.257 388.2C661.219 385.79 652.727 381.411 644.767 374.981L638.483 382.761ZM663.969 393.031V437.465H673.969V393.031H663.969ZM669.578 432.502C651.639 430.299 635.001 424.957 619.624 416.484L614.798 425.242C631.322 434.347 649.189 440.073 668.359 442.428L669.578 432.502ZM619.692 416.522C604.362 407.762 591.204 396.025 580.206 381.256L572.185 387.229C583.973 403.058 598.159 415.735 614.73 425.204L619.692 416.522ZM580.206 381.256C569.212 366.494 560.497 348.643 554.125 327.616L544.555 330.516C551.204 352.458 560.392 371.392 572.185 387.229L580.206 381.256ZM554.131 327.636C547.787 306.383 544.574 281.977 544.574 254.359H534.574C534.574 282.732 537.872 308.13 544.549 330.497L554.131 327.636ZM803.129 250.453V389.613H813.129V250.453H803.129ZM804.211 386.506C797.034 395.556 788.961 402.996 779.998 408.868L785.478 417.233C795.395 410.736 804.25 402.551 812.046 392.72L804.211 386.506ZM780.034 408.845C771.226 414.507 761.779 419.233 751.686 423.018L755.197 432.381C765.937 428.353 776.021 423.313 785.442 417.257L780.034 408.845ZM751.636 423.036C741.904 426.804 731.687 429.478 720.976 431.053L722.431 440.947C733.854 439.267 744.796 436.407 755.246 432.362L751.636 423.036ZM720.954 431.056C710.457 432.647 699.965 433.441 689.477 433.441V443.441C700.472 443.441 711.465 442.608 722.452 440.944L720.954 431.056ZM689.477 433.441H688.988V443.441H689.477V433.441ZM693.988 438.441V395.473H683.988V438.441H693.988ZM688.988 400.473C693.023 400.473 697.847 400.305 703.442 399.976L702.855 389.993C697.382 390.315 692.766 390.473 688.988 390.473V400.473ZM703.701 399.954C709.651 399.293 715.6 398.466 721.549 397.475L719.905 387.611C714.134 388.573 708.365 389.374 702.596 390.015L703.701 399.954ZM721.757 397.436C728.156 396.089 734.098 394.394 739.572 392.342L736.061 382.979C731.118 384.832 725.667 386.393 719.697 387.65L721.757 397.436ZM739.48 392.375C745.663 390.193 750.702 386.928 754.067 382.3L745.98 376.419C744.137 378.952 741.038 381.221 736.152 382.945L739.48 392.375ZM755.023 379.359V290.492H745.023V379.359H755.023ZM750.023 285.492H688.988V295.492H750.023V285.492ZM693.988 290.492V250.453H683.988V290.492H693.988ZM688.988 255.453H808.129V245.453H688.988V255.453Z" fill="#FFA400"/>
<path d="M689.306 265.656L506.001 347.549L507.132 181.276L689.306 265.656Z" fill="#FFA400"/>
</svg>
