<svg width="20" height="30" viewBox="0 0 20 30" fill="none" xmlns="http://www.w3.org/2000/svg">
<g clip-path="url(#clip0_30_5391)">
<path d="M6.26854 29.6386C9.72907 27.6932 13.1896 25.7477 16.5722 23.6843C17.2804 23.2168 18.0086 22.6514 18.6388 22.0659C18.8949 21.8121 19.0731 21.4403 19.0554 21.0284C18.8842 19.8705 16.6934 18.6053 15.6512 19.2086C11.5427 21.3276 7.55222 23.3686 3.44371 25.4876C2.87364 25.7792 2.40154 26.0909 1.92944 26.4025C1.33931 26.7921 1.33699 27.302 1.86463 27.7162C2.82193 28.5246 3.81934 29.1372 4.89467 29.8677C5.3066 29.8499 5.81649 29.8523 6.26854 29.6386Z" fill="#48E5C2"/>
<path d="M5.58332 16.5348C6.83916 16.3836 7.99704 16.2124 9.27294 15.9632C11.7067 15.5428 14.2385 15.1425 16.6722 14.7221C17.4182 14.5686 17.8903 14.257 17.8926 13.7471C18.2737 11.8857 17.5525 10.9214 15.7867 11.0703C12.0392 11.4259 8.34962 11.9974 4.66 12.569C4.03207 12.6446 3.48206 12.8382 2.81402 13.1097C2.59803 13.1676 2.32187 13.5193 2.26169 13.8132C2.29485 15.147 4.20945 16.7639 5.58332 16.5348Z" fill="#48E5C2"/>
<path d="M19.7972 8.93123C20.0132 8.87338 20.3071 8.93355 20.4251 8.85564C20.5632 8.67976 20.5455 8.26783 20.4675 8.14981C20.078 7.55968 19.6884 6.96955 19.2989 6.37943C17.1529 3.89857 14.176 2.98288 11.2193 1.96923C8.83025 1.17388 6.51914 0.496565 4.22809 -0.278721C3.83622 -0.358951 3.54231 -0.419124 3.15044 -0.499354C3.07021 -0.107483 2.8519 0.460266 3.10568 0.716375C4.23422 2.68269 5.3427 4.74698 8.0858 5.30859C11.9845 6.20886 16.1014 6.54138 19.7972 8.93123Z" fill="#48E5C2"/>
</g>
<defs>
<clipPath id="clip0_30_5391">
<rect width="19.9" height="29.6" fill="white" transform="translate(0 0.199951)"/>
</clipPath>
</defs>
</svg>
