<svg width="303" height="341" viewBox="0 0 303 341" fill="none" xmlns="http://www.w3.org/2000/svg">
<path d="M36.251 101.802H52.078C68.327 101.802 79.5114 109.407 79.5114 128.419C79.5114 147.431 68.327 155.247 52.7111 155.247H36.251V101.802ZM51.0228 144.051C58.8308 144.051 64.7396 140.882 64.7396 128.419C64.7396 115.956 58.6198 113.209 51.0228 113.209H50.3898V144.051H51.0228Z" fill="#FFFD67"/>
<path d="M85.6309 134.756C85.6309 121.025 95.5491 113.209 106.1 113.209C116.652 113.209 126.57 121.025 126.57 134.756C126.57 148.487 116.652 156.303 106.1 156.303C95.5491 156.303 85.6309 148.487 85.6309 134.756ZM112.009 134.756C112.009 128.419 110.321 124.617 106.1 124.617C101.88 124.617 100.192 128.63 100.192 134.756C100.192 140.882 101.88 144.896 106.1 144.896C110.321 144.896 112.009 141.093 112.009 134.756Z" fill="#FFFD67"/>
<path d="M133.112 140.882V98H147.251V141.305C147.251 144.051 148.517 144.896 149.572 144.896C149.994 144.896 150.416 144.896 151.05 144.685L152.738 155.035C151.261 155.669 148.939 156.092 145.774 156.092C136.278 156.303 133.112 149.966 133.112 140.882Z" fill="#FFFD67"/>
<path d="M157.592 140.882V98H171.731V141.305C171.731 144.051 172.997 144.896 174.052 144.896C174.474 144.896 174.896 144.896 175.529 144.685L177.217 155.035C175.74 155.669 173.419 156.092 170.253 156.092C160.757 156.303 157.592 149.966 157.592 140.882Z" fill="#FFFD67"/>
<path d="M113.835 61.2585L114.989 55.5198H131.724L130.794 61.2585H129.159V57.1549H124.543L122.683 67.0614C122.17 69.8186 121.689 72.5757 121.24 75.3329L124.478 75.7176L124.222 77H115.085L115.341 75.7176L118.451 75.3649L120.311 65.4584C120.567 64.0691 120.813 62.6799 121.048 61.2906C121.305 59.9013 121.54 58.5228 121.753 57.1549H116.944L115.47 61.2585H113.835ZM133.883 77.2565L133.562 77L136.672 61.7074C136.864 60.767 137.046 59.8265 137.217 58.8861C137.409 57.9243 137.58 56.9625 137.73 56.0007L134.684 55.8083L134.813 54.8786L140.359 53.2756L140.68 53.5321L138.371 64.9454C139.397 63.9409 140.509 63.0966 141.705 62.4127C142.924 61.7288 144.014 61.3868 144.976 61.3868C146.365 61.3868 147.059 62.1242 147.059 63.5989C147.059 64.1119 146.995 64.6355 146.867 65.1699C146.76 65.6828 146.643 66.2065 146.514 66.7408L145.072 72.6719C144.965 73.1207 144.869 73.5055 144.783 73.8261C144.698 74.1253 144.655 74.3604 144.655 74.5314C144.655 74.9802 144.869 75.2046 145.296 75.2046C145.681 75.2046 146.151 75.0016 146.707 74.5955C147.284 74.1894 147.861 73.623 148.438 72.8963L149.207 73.5055C148.801 74.1253 148.299 74.7451 147.701 75.3649C147.124 75.9634 146.493 76.455 145.809 76.8397C145.125 77.2244 144.42 77.4168 143.693 77.4168C143.18 77.4168 142.774 77.2885 142.475 77.0321C142.197 76.7756 142.058 76.4443 142.058 76.0382C142.058 75.6749 142.101 75.3222 142.186 74.9802C142.293 74.6169 142.421 74.1039 142.571 73.4413L143.95 67.7988C144.078 67.2431 144.195 66.7194 144.302 66.2278C144.409 65.7363 144.463 65.3302 144.463 65.0096C144.463 64.4539 144.366 64.0691 144.174 63.8554C143.982 63.6417 143.704 63.5348 143.341 63.5348C142.763 63.5348 142.037 63.7699 141.16 64.2401C140.284 64.689 139.258 65.3836 138.083 66.324L137.249 70.2674C137.035 71.3788 136.822 72.5009 136.608 73.6337C136.394 74.7451 136.202 75.8672 136.031 77L133.883 77.2565ZM160.331 62.7654C159.839 62.7654 159.294 62.9577 158.695 63.3424C158.118 63.7272 157.552 64.2615 156.996 64.9454C156.441 65.6294 155.97 66.4202 155.586 67.3179C155.222 68.1942 154.998 69.1346 154.912 70.1392C156.686 69.6262 158.097 69.0598 159.144 68.44C160.213 67.7988 160.972 67.1576 161.421 66.5164C161.891 65.8538 162.126 65.234 162.126 64.6569C162.126 64.0584 161.955 63.5989 161.613 63.2783C161.292 62.9363 160.865 62.7654 160.331 62.7654ZM157.509 77.4168C156.099 77.4168 154.934 76.9359 154.015 75.9741C153.117 75.0123 152.668 73.5055 152.668 71.4536C152.668 70.1712 152.893 68.9316 153.341 67.7347C153.79 66.5164 154.399 65.437 155.169 64.4966C155.938 63.5348 156.825 62.776 157.83 62.2203C158.856 61.6646 159.924 61.3868 161.036 61.3868C162.083 61.3868 162.874 61.6433 163.408 62.1562C163.964 62.6692 164.242 63.3959 164.242 64.3363C164.242 65.0202 163.975 65.779 163.44 66.6126C162.906 67.4247 161.955 68.2476 160.587 69.0812C159.241 69.9147 157.349 70.6842 154.912 71.3895C154.977 72.7574 155.297 73.7406 155.874 74.339C156.451 74.9161 157.231 75.2046 158.215 75.2046C159.219 75.2046 160.085 74.9482 160.811 74.4352C161.538 73.9222 162.115 73.3986 162.543 72.8643L163.28 73.4413C162.617 74.5314 161.784 75.4718 160.779 76.2626C159.775 77.0321 158.685 77.4168 157.509 77.4168Z" fill="#FFFD67"/>
<path d="M180.382 143.628C180.382 134.967 186.924 130.32 202.751 128.63C202.329 125.673 200.64 124.405 197.053 124.405C194.099 124.405 190.933 125.462 186.713 127.785L181.859 118.491C187.557 115.111 193.465 113.209 199.796 113.209C210.559 113.209 216.889 118.913 216.889 132.433V155.247H205.283L204.228 151.233H203.806C200.429 154.19 196.842 156.092 192.41 156.092C185.024 156.303 180.382 150.388 180.382 143.628ZM202.751 142.572V136.869C195.998 137.925 193.888 140.037 193.888 142.361C193.888 144.262 195.154 145.318 197.686 145.318C200.007 145.53 201.273 144.262 202.751 142.572Z" fill="#FFFD67"/>
<path d="M226.175 114.054H237.781L238.836 121.237H239.258C242.213 115.533 246.855 113.209 250.865 113.209C253.397 113.209 254.874 113.632 255.93 114.054L253.608 126.306C252.131 125.884 250.865 125.673 248.966 125.673C246.011 125.673 242.424 127.574 240.314 132.644V155.458H226.175V114.054Z" fill="#FFFD67"/>
<path d="M35.1953 178.231H49.3341V198.088H65.3721V178.231H79.5109V231.676H65.3721V210.551H49.3341V231.887H35.1953V178.231Z" fill="#FFFD67"/>
<path d="M87.9521 211.185C87.9521 197.454 97.8704 189.638 108.422 189.638C118.973 189.638 128.891 197.454 128.891 211.185C128.891 224.916 118.973 232.732 108.422 232.732C97.8704 232.732 87.9521 224.916 87.9521 211.185ZM114.33 211.185C114.33 204.848 112.642 201.045 108.422 201.045C104.201 201.045 102.513 205.059 102.513 211.185C102.513 217.311 104.201 221.325 108.422 221.325C112.642 221.325 114.33 217.522 114.33 211.185Z" fill="#FFFD67"/>
<path d="M135.434 217.311V174.429H149.572V217.734C149.572 220.48 150.839 221.325 151.894 221.325C152.316 221.325 152.738 221.325 153.371 221.113L155.059 231.464C153.582 232.098 151.261 232.521 148.095 232.521C138.599 232.732 135.434 226.606 135.434 217.311Z" fill="#FFFD67"/>
<path d="M159.912 217.311V174.429H174.051V217.734C174.051 220.48 175.317 221.325 176.372 221.325C176.794 221.325 177.216 221.325 177.849 221.113L179.538 231.464C178.06 232.098 175.739 232.521 172.574 232.521C163.078 232.732 159.912 226.606 159.912 217.311Z" fill="#FFFD67"/>
<path d="M182.281 211.185C182.281 197.877 191.988 189.638 202.118 189.638C214.357 189.638 220.055 198.511 220.055 209.495C220.055 212.03 219.633 214.354 219.422 215.41H195.998C197.264 220.269 200.852 221.958 205.494 221.958C208.238 221.958 210.981 221.114 213.935 219.424L218.578 227.873C214.146 231.042 208.238 232.732 203.595 232.732C191.566 232.732 182.281 224.916 182.281 211.185ZM208.027 206.327C208.027 203.158 206.76 200.412 202.329 200.412C199.163 200.412 196.631 202.313 195.787 206.327H208.027Z" fill="#FFFD67"/>
<path d="M227.651 190.695H239.258L240.313 197.877H240.735C243.689 192.173 248.332 189.85 252.341 189.85C254.874 189.85 256.351 190.272 257.406 190.695L255.085 202.947C253.608 202.524 252.341 202.313 250.442 202.313C247.488 202.313 243.9 204.214 241.79 209.284V232.098H227.651V190.695Z" fill="#FFFD67"/>
<path d="M14.4961 12.0001C12.9961 10.3001 10.9961 9.80009 8.8961 10.3001C7.5961 10.6001 6.39609 11.3001 4.99609 11.9001C9.09609 16.8001 13.0961 21.5001 17.0961 26.3001C19.4961 29.1001 22.2961 29.7001 25.9961 27.9001C23.9961 24.7001 22.2961 21.7001 20.3961 18.9001C18.5961 16.5001 16.4961 14.3001 14.4961 12.0001Z" fill="#7F5BDC"/>
<path d="M0.180029 129.923C1.16633 130.917 1.9449 131.632 2.56809 132.472C3.4767 133.53 4.43235 133.716 5.7909 133.319C7.22352 132.925 8.72297 132.67 10.2188 132.482C14.5618 131.842 18.9752 131.273 23.3218 130.566C24.5955 130.366 25.8023 130.028 27.2349 129.634C25.4394 127.117 23.2643 126.125 20.3468 126.506C14.582 127.338 8.81725 128.17 3.05251 129.002C2.15283 129.155 1.31276 129.58 0.180029 129.923Z" fill="#7F5BDC"/>
<path d="M254.78 28.7044C256.179 28.6384 257.231 28.539 258.273 28.6394C259.667 28.6734 260.445 28.0885 261.06 26.8136C261.728 25.4865 262.543 24.2022 263.405 22.9655C265.84 19.3126 268.374 15.6549 270.761 11.9543C271.466 10.8746 272.023 9.75194 272.691 8.42477C269.619 8.07123 267.426 9.0218 265.754 11.4428C262.509 16.2802 259.265 21.1175 256.021 25.9548C255.532 26.7254 255.285 27.6341 254.78 28.7044Z" fill="#7F5BDC"/>
<path d="M134.311 29.0273C134.411 30.0273 135.111 31.7273 135.711 31.8273C138.211 32.4273 140.711 33.8273 142.911 32.2273C143.211 24.2273 145.211 16.8273 146.311 8.92725C145.611 8.62725 145.011 8.42725 144.411 8.22725C143.911 8.12725 143.411 7.92725 142.911 8.02725C138.711 8.82725 137.111 7.72725 136.211 13.4273C135.611 16.9273 134.911 20.4273 134.311 23.9273C134.211 25.7273 134.111 27.4273 134.311 29.0273Z" fill="#7F5BDC"/>
<path d="M268.195 223.32C273.795 227.82 279.495 231.32 285.995 233.02C288.195 233.62 290.895 233.02 292.995 230.92C292.095 230.32 291.595 229.82 290.895 229.52C286.695 227.12 282.495 224.82 278.395 222.32C275.195 220.42 272.195 220.42 268.195 223.32Z" fill="#7F5BDC"/>
<path d="M271.803 43.936C268.568 46.7118 265.497 49.6576 262.391 52.5022C261.663 53.1972 261.132 54.1632 260.128 55.6261C268.05 55.6619 271.849 50.109 276.677 46.3475C278.105 45.1919 279.63 44.0041 279.412 40.8144C278.734 40.7049 277.734 40.5913 276.796 40.3443C274.937 40.8569 273.198 42.6793 271.803 43.936Z" fill="#7F5BDC"/>
<path d="M23.5953 252.151C20.7953 257.651 18.0953 263.251 15.1953 269.151C21.9953 270.851 23.0953 270.251 25.4953 264.651C27.3953 260.051 29.5953 255.651 31.5953 251.151C32.1953 249.851 32.9953 248.551 33.6953 247.151C28.2953 246.551 25.9953 247.651 23.5953 252.151Z" fill="#7F5BDC"/>
<path d="M187.495 252.399C186.995 252.499 186.295 253.199 186.295 253.699C186.195 255.599 186.195 257.499 186.195 259.399C186.195 259.799 186.295 260.199 186.295 260.499C187.195 264.899 188.195 269.199 190.795 272.899C191.595 273.999 192.395 275.199 193.995 275.299C196.595 275.499 198.995 275.199 201.195 273.199C196.895 266.099 195.095 258.299 194.495 250.099C191.595 249.499 189.795 251.799 187.495 252.399ZM187.395 254.999C187.395 255.099 187.395 255.199 187.395 255.199C187.395 255.199 187.395 255.099 187.395 254.999Z" fill="#7F5BDC"/>
<path d="M76.4003 4.9059C72.9003 1.6059 63.8003 8.4059 58.7003 8.1059C58.0003 8.0059 57.3003 8.0059 56.7003 7.8059C56.7003 7.7059 56.8003 7.5059 56.9003 7.4059C56.9003 7.3059 57.1003 6.9059 57.1003 7.0059C56.2003 6.4059 55.4003 6.8059 54.9003 7.6059C54.9003 7.6059 54.9003 7.7059 54.8003 7.7059C54.8003 7.7059 54.8003 7.8059 54.7003 7.8059C54.0003 9.3059 54.2003 11.1059 54.3003 12.8059C54.8003 19.4059 55.3003 26.0059 55.4003 32.6059C55.9003 36.3059 54.4003 40.7059 56.0003 44.1059C56.0003 44.2059 56.0003 44.3059 56.0003 44.5059C56.1003 44.6059 56.2003 44.7059 56.3003 44.8059C56.7003 45.1059 57.1003 45.3059 57.6003 45.4059C59.6003 45.8059 61.6003 45.0059 63.5003 44.7059C65.3003 44.3059 67.0003 43.9059 68.8003 43.5059C68.7003 43.5059 68.7003 43.5059 68.6003 43.5059C69.0003 43.5059 69.4003 43.4059 69.8003 43.3059C69.7003 43.8059 69.7003 44.2059 69.8003 44.4059C69.1003 48.9059 67.9003 53.4059 66.5003 57.7059C66.1003 60.3059 62.2003 66.0059 66.5003 66.6059C71.1003 66.0059 75.8003 64.7059 80.1003 62.9059C80.2003 63.3059 80.2003 63.7059 80.3003 64.1059C80.3003 64.0059 80.3003 63.9059 80.2003 63.9059C81.7003 70.4059 82.3003 78.8059 87.9003 83.1059C89.2003 84.1059 89.4003 84.5059 90.1003 81.8059C90.7003 77.3059 90.6003 73.6059 91.3003 70.6059C91.9003 64.4059 92.5003 58.2059 93.6003 52.1059C96.3003 38.3059 98.4003 35.1059 83.5003 42.7059C86.5003 26.3059 97.6003 14.2059 72.7003 26.3059C72.8003 25.5059 72.9003 24.7059 73.0003 23.9059C73.0003 24.0059 73.0003 24.1059 72.9003 24.1059C73.9003 18.4059 75.7003 12.8059 76.8003 7.1059C77.1003 7.0059 77.2003 6.7059 77.1003 6.2059L76.4003 4.9059ZM82.5003 62.1059C82.6003 62.1059 82.6003 62.0059 82.7003 62.0059C84.8003 60.5059 87.1003 57.2059 82.8003 57.5059C77.7003 59.3059 72.7003 61.6059 67.3003 62.4059C67.7003 61.6059 71.4003 48.0059 71.9003 42.6059C75.3003 41.1059 74.8003 38.4059 68.7003 40.4059C67.1003 41.3059 59.5003 42.0059 56.9003 43.3059C58.4003 38.3059 57.1003 32.5059 57.2003 27.4059C56.5003 22.2059 57.0003 16.6059 56.1003 11.4059C56.9003 11.8059 58.1003 12.0059 59.8003 11.8059C61.2003 12.0059 70.1003 11.4059 74.6003 9.3059C73.1003 14.4059 72.0003 22.1059 71.3003 23.8059C71.3003 25.8059 69.3003 29.4059 71.7003 30.5059C76.4003 29.6059 80.6003 26.7059 85.4003 26.0059C83.7003 32.4059 81.5003 38.7059 80.2003 45.3059C77.1003 48.0059 81.0003 55.3059 82.5003 48.6059C83.4003 48.0059 84.3003 47.5059 85.2003 47.1059C85.9003 46.8059 86.6003 46.4059 87.3003 46.1059C88.9003 45.4059 90.6003 44.7059 92.3003 44.0059C92.0003 45.5059 91.7003 46.9059 91.4003 48.4059V48.3059C91.4003 48.5059 91.3003 48.7059 91.3003 48.8059C91.3003 48.7059 91.3003 48.6059 91.4003 48.6059C90.6003 53.9059 85.7003 72.0059 88.4003 79.0059" fill="#7F5BDC"/>
<path d="M141.96 281.549C143.867 280.248 146.245 279.207 146.605 276.329C147.253 271.278 148.105 266.317 148.613 261.252C148.782 259.563 148.902 257.656 147.263 256.284C142.246 257.416 140.909 259.414 140.978 264.395C141.104 268.814 140.59 273.239 140.357 277.693C140.335 278.615 140.033 279.508 140.089 280.367C140.257 281.521 141.123 282.105 141.96 281.549Z" fill="#7F5BDC"/>
<path d="M162.422 25.0058C164.539 24.0863 167.071 23.5112 167.965 20.7525C169.551 15.9127 171.321 11.2013 172.772 6.32125C173.256 4.69458 173.732 2.84442 172.38 1.18837C167.24 1.35671 165.551 3.0676 164.683 7.97329C163.975 12.3367 162.638 16.5866 161.572 20.9171C161.377 21.8184 160.912 22.639 160.806 23.4926C160.755 24.6577 161.495 25.3941 162.422 25.0058Z" fill="#7F5BDC"/>
<path d="M292.425 109.264C292.638 109.003 292.846 108.559 292.688 108.125C291.599 106.983 284.354 106.66 282.424 106.93C284.399 101.36 290.703 99.2591 293.575 94.4699C295.887 92.0343 286.299 91.5164 284.789 91.0806C286.465 88.0767 288.773 85.4585 291.159 83.0575C291.08 82.8403 291.041 82.7316 290.962 82.5144C291.075 82.6577 291.08 82.8403 291.159 83.0575C291.075 82.6577 290.849 82.3712 290.622 82.0847C290.661 82.1933 290.775 82.3366 290.814 82.4452C290.775 82.3366 290.661 82.1933 290.622 82.0847C287.895 79.8168 284.016 79.6253 280.735 78.5412C276.363 83.2598 272.701 88.5811 269.67 94.288C268.571 97.021 276.192 96.3476 277.854 97.0352C274.42 101.291 271.361 105.902 269.081 110.968C268.804 111.56 268.527 112.152 268.25 112.744C270.485 112.978 272.676 112.921 274.916 113.338C270.993 122.686 268.546 132.544 266.098 142.402C274.016 130.684 282.116 118.961 292.425 109.264Z" fill="#7F5BDC"/>
<path fill-rule="evenodd" clip-rule="evenodd" d="M102.572 257.107L66.6093 250.82L49.2297 334.076L98.3301 338.221L102.572 257.107ZM96.2189 262.233L95.0407 285.878C91.924 282.369 87.1562 279.662 81.6082 278.903C76.3964 278.19 71.2909 279.205 67.5376 281.603L72.9419 258.365L96.2189 262.233ZM94.5407 294.544L94.3712 298.289L92.5218 298.036C92.1468 299.526 91.6266 300.825 90.5791 302.223L84.8629 301.442C86.7741 299.99 87.7986 298.76 88.0055 297.247C88.0975 296.575 88.0213 295.879 87.5859 295.306C87.1505 294.732 86.524 294.304 85.8515 294.212C85.179 294.12 84.6517 294.219 84.2465 294.678C83.6961 294.945 83.0538 295.885 82.1974 297.138C81.341 298.391 80.7217 299.163 80.1023 299.934C79.506 300.538 78.5734 301.095 77.4957 301.462C76.418 301.828 75.3863 301.858 74.2094 301.697C72.3601 301.444 70.7478 300.71 69.3957 299.326C67.8984 297.752 67.1195 295.932 66.7459 293.655L64.7285 293.379L65.5705 289.726L67.2517 289.956C67.4586 288.443 68.1929 286.831 69.4775 284.951L75.3618 285.756C73.2596 287.352 71.9979 289.064 71.768 290.745C71.6301 291.754 71.8514 292.64 72.2868 293.214C72.8673 293.978 73.6619 294.429 74.5025 294.544C75.3432 294.659 76.0616 294.415 76.635 293.98C77.2083 293.544 77.8506 292.604 78.684 291.519C79.7546 289.953 80.7791 288.723 82.0709 288.044C83.3627 287.364 84.7767 287.043 86.626 287.296C88.3072 287.526 89.7514 288.237 90.7903 289.407C91.8292 290.577 92.631 292.228 93.0506 294.169L94.5637 294.376L94.5407 294.544ZM94.0321 305.778L92.7317 329.064L57.0582 326.926L62.8605 302.029C65.8623 306.379 71.0884 309.491 77.4771 310.365C83.8657 311.239 89.9497 309.33 94.0321 305.778Z" fill="#7F5BDC"/>
<path fill-rule="evenodd" clip-rule="evenodd" d="M218.867 70.3958L221.231 71.0291C221.231 71.0291 224.508 72.034 225.718 68.9381L244.338 18.8276C244.338 18.8276 245.974 15.086 241.12 14.292C240.38 14.2202 239.048 13.9901 237.48 13.6966L218.867 70.3958ZM205.03 9.05507C205.03 9.05507 201.453 8.22326 200.4 12.6276C198.705 19.9 190.367 58.5792 190.367 58.5792C190.367 58.5792 189.063 62.0296 193.672 63.2646C196.153 63.9296 204.276 66.2328 210.981 68.156L227.709 12.3451C217.347 10.8352 205.03 9.05507 205.03 9.05507ZM221.698 16.8144L213.049 45.7835L209.74 44.8968L217.876 16.4237L221.698 16.8144ZM215.827 16.5079L209.861 35.936L206.906 35.1443L212.391 16.094L215.827 16.5079Z" fill="#7F5BDC"/>
<path fill-rule="evenodd" clip-rule="evenodd" d="M238.378 266.042L238.585 269.966L246.809 271.674L247.887 266.485L238.378 266.042ZM238.864 272.067L239.23 278.169L245.301 279.429L246.501 273.653L238.864 272.067ZM239.391 280.347L239.762 285.939L243.776 286.773L244.874 281.486L239.391 280.347ZM245.832 287.2L251.315 288.338L253.098 283.194L246.93 281.913L245.832 287.2ZM253.819 281.198L255.704 275.564L248.557 274.08L247.357 279.856L253.819 281.198ZM256.425 273.569L258.591 267.074L250.102 266.638L248.963 272.121L256.405 273.667L256.425 273.569ZM253.371 288.765L257.092 289.538L260.05 284.637L255.057 283.6L253.371 288.765ZM261.26 282.744L264.516 277.394L257.76 275.991L255.875 281.625L261.26 282.744ZM265.726 275.5L270.531 267.612L260.826 267.129L258.481 273.996L265.726 275.5ZM232.672 297.948C232.265 299.907 233.527 301.701 235.387 302.087C237.247 302.473 239.139 301.232 239.526 299.372C239.912 297.511 238.671 295.62 236.81 295.233C234.872 294.729 233.078 295.99 232.672 297.948ZM247.554 301.039C247.148 302.997 248.409 304.791 250.269 305.178C252.13 305.564 254.022 304.323 254.408 302.462C254.794 300.602 253.553 298.71 251.693 298.324C249.853 297.84 247.961 299.081 247.554 301.039ZM234.633 258.013L226.506 256.325L224.167 259.721L231.412 261.225L233.993 291.584L257.002 296.362L258.065 293.213L236.231 288.678L234.633 258.013Z" fill="#7F5BDC"/>
</svg>
